<svg xmlns="http://www.w3.org/2000/svg" xmlns:xlink="http://www.w3.org/1999/xlink" width="500" zoomAndPan="magnify" viewBox="0 0 375 374.999991" height="500" preserveAspectRatio="xMidYMid meet" version="1.0"><defs><g/></defs><g fill="#ff0000" fill-opacity="1"><g transform="translate(44.392973, 194.537052)"><g><path d="M 59.28125 0 L 59.28125 -54.59375 L 46.796875 -54.59375 L 46.796875 -33.546875 L 18.71875 -33.546875 L 18.71875 -54.59375 L 0.390625 -54.59375 L 0.390625 -42.125 L 6.234375 -42.125 L 6.234375 0 L 18.71875 0 L 18.71875 -21.0625 L 46.796875 -21.0625 L 46.796875 0 Z M 59.28125 0 "/></g></g></g><g fill="#ff0000" fill-opacity="1"><g transform="translate(115.919417, 194.537052)"><g><path d="M 65.75 0 L 40.25 -54.59375 L 14.515625 -54.59375 L 14.515625 -42.125 L 20.359375 -42.125 L 0.78125 0 L 14.4375 0 L 18.796875 -9.359375 L 47.65625 -9.359375 L 52.109375 0 Z M 41.8125 -21.84375 L 24.5625 -21.84375 L 32.921875 -42.359375 L 33.46875 -42.359375 Z M 41.8125 -21.84375 "/></g></g></g><g fill="#ff0000" fill-opacity="1"><g transform="translate(190.799884, 194.537052)"><g><path d="M 56.9375 0 L 56.9375 -12.484375 L 16.375 -12.484375 L 16.375 -42.125 L 46.40625 -42.125 L 46.40625 -34.3125 L 58.890625 -34.3125 L 58.890625 -46.796875 L 51.09375 -54.59375 L 11.703125 -54.59375 L 3.90625 -46.796875 L 3.90625 -7.796875 L 11.703125 0 Z M 56.9375 0 "/></g></g></g><g fill="#ff0000" fill-opacity="1"><g transform="translate(261.936317, 194.537052)"><g><path d="M 58.578125 0 L 45.78125 -27.296875 L 58.578125 -54.59375 L 44.84375 -54.59375 L 34.9375 -33.546875 L 18.71875 -33.546875 L 18.71875 -54.59375 L 0.390625 -54.59375 L 0.390625 -42.125 L 6.234375 -42.125 L 6.234375 0 L 18.71875 0 L 18.71875 -21.0625 L 35.09375 -21.0625 L 44.84375 0 Z M 58.578125 0 "/></g></g></g><g fill="#00ffff" fill-opacity="1"><g transform="translate(52.134878, 193.586455)"><g><path d="M 59.28125 0 L 59.28125 -54.59375 L 46.796875 -54.59375 L 46.796875 -33.546875 L 18.71875 -33.546875 L 18.71875 -54.59375 L 0.390625 -54.59375 L 0.390625 -42.125 L 6.234375 -42.125 L 6.234375 0 L 18.71875 0 L 18.71875 -21.0625 L 46.796875 -21.0625 L 46.796875 0 Z M 59.28125 0 "/></g></g></g><g fill="#00ffff" fill-opacity="1"><g transform="translate(123.661323, 193.586455)"><g><path d="M 65.75 0 L 40.25 -54.59375 L 14.515625 -54.59375 L 14.515625 -42.125 L 20.359375 -42.125 L 0.78125 0 L 14.4375 0 L 18.796875 -9.359375 L 47.65625 -9.359375 L 52.109375 0 Z M 41.8125 -21.84375 L 24.5625 -21.84375 L 32.921875 -42.359375 L 33.46875 -42.359375 Z M 41.8125 -21.84375 "/></g></g></g><g fill="#00ffff" fill-opacity="1"><g transform="translate(198.541789, 193.586455)"><g><path d="M 56.9375 0 L 56.9375 -12.484375 L 16.375 -12.484375 L 16.375 -42.125 L 46.40625 -42.125 L 46.40625 -34.3125 L 58.890625 -34.3125 L 58.890625 -46.796875 L 51.09375 -54.59375 L 11.703125 -54.59375 L 3.90625 -46.796875 L 3.90625 -7.796875 L 11.703125 0 Z M 56.9375 0 "/></g></g></g><g fill="#00ffff" fill-opacity="1"><g transform="translate(269.678223, 193.586455)"><g><path d="M 58.578125 0 L 45.78125 -27.296875 L 58.578125 -54.59375 L 44.84375 -54.59375 L 34.9375 -33.546875 L 18.71875 -33.546875 L 18.71875 -54.59375 L 0.390625 -54.59375 L 0.390625 -42.125 L 6.234375 -42.125 L 6.234375 0 L 18.71875 0 L 18.71875 -21.0625 L 35.09375 -21.0625 L 44.84375 0 Z M 58.578125 0 "/></g></g></g><g fill="#88ff55" fill-opacity="1"><g transform="translate(48.263926, 194.061754)"><g><path d="M 59.28125 0 L 59.28125 -54.59375 L 46.796875 -54.59375 L 46.796875 -33.546875 L 18.71875 -33.546875 L 18.71875 -54.59375 L 0.390625 -54.59375 L 0.390625 -42.125 L 6.234375 -42.125 L 6.234375 0 L 18.71875 0 L 18.71875 -21.0625 L 46.796875 -21.0625 L 46.796875 0 Z M 59.28125 0 "/></g></g></g><g fill="#88ff55" fill-opacity="1"><g transform="translate(119.79037, 194.061754)"><g><path d="M 65.75 0 L 40.25 -54.59375 L 14.515625 -54.59375 L 14.515625 -42.125 L 20.359375 -42.125 L 0.78125 0 L 14.4375 0 L 18.796875 -9.359375 L 47.65625 -9.359375 L 52.109375 0 Z M 41.8125 -21.84375 L 24.5625 -21.84375 L 32.921875 -42.359375 L 33.46875 -42.359375 Z M 41.8125 -21.84375 "/></g></g></g><g fill="#88ff55" fill-opacity="1"><g transform="translate(194.670837, 194.061754)"><g><path d="M 56.9375 0 L 56.9375 -12.484375 L 16.375 -12.484375 L 16.375 -42.125 L 46.40625 -42.125 L 46.40625 -34.3125 L 58.890625 -34.3125 L 58.890625 -46.796875 L 51.09375 -54.59375 L 11.703125 -54.59375 L 3.90625 -46.796875 L 3.90625 -7.796875 L 11.703125 0 Z M 56.9375 0 "/></g></g></g><g fill="#88ff55" fill-opacity="1"><g transform="translate(265.80727, 194.061754)"><g><path d="M 58.578125 0 L 45.78125 -27.296875 L 58.578125 -54.59375 L 44.84375 -54.59375 L 34.9375 -33.546875 L 18.71875 -33.546875 L 18.71875 -54.59375 L 0.390625 -54.59375 L 0.390625 -42.125 L 6.234375 -42.125 L 6.234375 0 L 18.71875 0 L 18.71875 -21.0625 L 35.09375 -21.0625 L 44.84375 0 Z M 58.578125 0 "/></g></g></g><g fill="#ff0000" fill-opacity="1"><g transform="translate(8.393936, 264.737459)"><g><path d="M 65.75 0 L 40.25 -54.59375 L 14.515625 -54.59375 L 14.515625 -42.125 L 20.359375 -42.125 L 0.78125 0 L 14.4375 0 L 18.796875 -9.359375 L 47.65625 -9.359375 L 52.109375 0 Z M 41.8125 -21.84375 L 24.5625 -21.84375 L 32.921875 -42.359375 L 33.46875 -42.359375 Z M 41.8125 -21.84375 "/></g></g></g><g fill="#ff0000" fill-opacity="1"><g transform="translate(83.274403, 264.737459)"><g/></g></g><g fill="#ff0000" fill-opacity="1"><g transform="translate(122.820644, 264.737459)"><g><path d="M 53.046875 0 L 60.84375 -7.796875 L 60.84375 -46.796875 L 53.046875 -54.59375 L 11.703125 -54.59375 L 3.90625 -46.796875 L 3.90625 -7.796875 L 11.703125 0 L 37.203125 0 L 48.90625 11.703125 L 64.734375 11.703125 Z M 48.359375 -12.484375 L 16.375 -12.484375 L 16.375 -42.125 L 48.359375 -42.125 Z M 48.359375 -12.484375 "/></g></g></g><g fill="#ff0000" fill-opacity="1"><g transform="translate(195.907089, 264.737459)"><g><path d="M 59.28125 -7.796875 L 59.28125 -54.59375 L 46.796875 -54.59375 L 46.796875 -12.484375 L 18.71875 -12.484375 L 18.71875 -54.59375 L 0.390625 -54.59375 L 0.390625 -42.125 L 6.234375 -42.125 L 6.234375 -7.796875 L 14.046875 0 L 51.484375 0 Z M 59.28125 -7.796875 "/></g></g></g><g fill="#ff0000" fill-opacity="1"><g transform="translate(267.433549, 264.737459)"><g><path d="M 16.375 0 L 16.375 -54.59375 L 3.90625 -54.59375 L 3.90625 0 Z M 16.375 0 "/></g></g></g><g fill="#ff0000" fill-opacity="1"><g transform="translate(296.05973, 264.737459)"><g><path d="M 23.796875 -12.484375 L 58.890625 -38.21875 L 58.890625 -46.796875 L 51.09375 -54.59375 L 3.90625 -54.59375 L 3.90625 -42.125 L 43.296875 -42.125 L 3.90625 -13.8125 L 3.90625 -7.796875 L 11.703125 0 L 58.890625 0 L 58.890625 -12.484375 Z M 23.796875 -12.484375 "/></g></g></g><g fill="#00ffff" fill-opacity="1"><g transform="translate(16.135841, 263.786862)"><g><path d="M 65.75 0 L 40.25 -54.59375 L 14.515625 -54.59375 L 14.515625 -42.125 L 20.359375 -42.125 L 0.78125 0 L 14.4375 0 L 18.796875 -9.359375 L 47.65625 -9.359375 L 52.109375 0 Z M 41.8125 -21.84375 L 24.5625 -21.84375 L 32.921875 -42.359375 L 33.46875 -42.359375 Z M 41.8125 -21.84375 "/></g></g></g><g fill="#00ffff" fill-opacity="1"><g transform="translate(91.016308, 263.786862)"><g/></g></g><g fill="#00ffff" fill-opacity="1"><g transform="translate(130.56255, 263.786862)"><g><path d="M 53.046875 0 L 60.84375 -7.796875 L 60.84375 -46.796875 L 53.046875 -54.59375 L 11.703125 -54.59375 L 3.90625 -46.796875 L 3.90625 -7.796875 L 11.703125 0 L 37.203125 0 L 48.90625 11.703125 L 64.734375 11.703125 Z M 48.359375 -12.484375 L 16.375 -12.484375 L 16.375 -42.125 L 48.359375 -42.125 Z M 48.359375 -12.484375 "/></g></g></g><g fill="#00ffff" fill-opacity="1"><g transform="translate(203.648994, 263.786862)"><g><path d="M 59.28125 -7.796875 L 59.28125 -54.59375 L 46.796875 -54.59375 L 46.796875 -12.484375 L 18.71875 -12.484375 L 18.71875 -54.59375 L 0.390625 -54.59375 L 0.390625 -42.125 L 6.234375 -42.125 L 6.234375 -7.796875 L 14.046875 0 L 51.484375 0 Z M 59.28125 -7.796875 "/></g></g></g><g fill="#00ffff" fill-opacity="1"><g transform="translate(275.175454, 263.786862)"><g><path d="M 16.375 0 L 16.375 -54.59375 L 3.90625 -54.59375 L 3.90625 0 Z M 16.375 0 "/></g></g></g><g fill="#00ffff" fill-opacity="1"><g transform="translate(303.801635, 263.786862)"><g><path d="M 23.796875 -12.484375 L 58.890625 -38.21875 L 58.890625 -46.796875 L 51.09375 -54.59375 L 3.90625 -54.59375 L 3.90625 -42.125 L 43.296875 -42.125 L 3.90625 -13.8125 L 3.90625 -7.796875 L 11.703125 0 L 58.890625 0 L 58.890625 -12.484375 Z M 23.796875 -12.484375 "/></g></g></g><g fill="#88ff55" fill-opacity="1"><g transform="translate(12.264889, 264.26216)"><g><path d="M 65.75 0 L 40.25 -54.59375 L 14.515625 -54.59375 L 14.515625 -42.125 L 20.359375 -42.125 L 0.78125 0 L 14.4375 0 L 18.796875 -9.359375 L 47.65625 -9.359375 L 52.109375 0 Z M 41.8125 -21.84375 L 24.5625 -21.84375 L 32.921875 -42.359375 L 33.46875 -42.359375 Z M 41.8125 -21.84375 "/></g></g></g><g fill="#88ff55" fill-opacity="1"><g transform="translate(87.145356, 264.26216)"><g/></g></g><g fill="#88ff55" fill-opacity="1"><g transform="translate(126.691597, 264.26216)"><g><path d="M 53.046875 0 L 60.84375 -7.796875 L 60.84375 -46.796875 L 53.046875 -54.59375 L 11.703125 -54.59375 L 3.90625 -46.796875 L 3.90625 -7.796875 L 11.703125 0 L 37.203125 0 L 48.90625 11.703125 L 64.734375 11.703125 Z M 48.359375 -12.484375 L 16.375 -12.484375 L 16.375 -42.125 L 48.359375 -42.125 Z M 48.359375 -12.484375 "/></g></g></g><g fill="#88ff55" fill-opacity="1"><g transform="translate(199.778042, 264.26216)"><g><path d="M 59.28125 -7.796875 L 59.28125 -54.59375 L 46.796875 -54.59375 L 46.796875 -12.484375 L 18.71875 -12.484375 L 18.71875 -54.59375 L 0.390625 -54.59375 L 0.390625 -42.125 L 6.234375 -42.125 L 6.234375 -7.796875 L 14.046875 0 L 51.484375 0 Z M 59.28125 -7.796875 "/></g></g></g><g fill="#88ff55" fill-opacity="1"><g transform="translate(271.304502, 264.26216)"><g><path d="M 16.375 0 L 16.375 -54.59375 L 3.90625 -54.59375 L 3.90625 0 Z M 16.375 0 "/></g></g></g><g fill="#88ff55" fill-opacity="1"><g transform="translate(299.930683, 264.26216)"><g><path d="M 23.796875 -12.484375 L 58.890625 -38.21875 L 58.890625 -46.796875 L 51.09375 -54.59375 L 3.90625 -54.59375 L 3.90625 -42.125 L 43.296875 -42.125 L 3.90625 -13.8125 L 3.90625 -7.796875 L 11.703125 0 L 58.890625 0 L 58.890625 -12.484375 Z M 23.796875 -12.484375 "/></g></g></g></svg>