<svg xmlns="http://www.w3.org/2000/svg" xmlns:xlink="http://www.w3.org/1999/xlink" width="500" zoomAndPan="magnify" viewBox="0 0 375 374.999991" height="500" preserveAspectRatio="xMidYMid meet" version="1.0"><defs><g/></defs><g fill="#ff00ff" fill-opacity="1"><g transform="translate(58.567676, 180.093036)"><g><path d="M 42.609375 -30.078125 L 12.53125 -30.078125 L 12.53125 -50.125 L 2.5 -50.125 L 2.5 0 L 12.53125 0 L 12.53125 -20.046875 L 42.609375 -20.046875 L 42.609375 0 L 52.625 0 L 52.625 -50.125 L 42.609375 -50.125 Z M 42.609375 -30.078125 "/></g></g></g><g fill="#ff00ff" fill-opacity="1"><g transform="translate(123.599036, 180.093036)"><g><path d="M 12.53125 -50.125 C 7.015625 -50.125 2.5 -45.609375 2.5 -40.09375 L 2.5 0 L 12.53125 0 L 12.53125 -20.046875 L 42.609375 -20.046875 L 42.609375 0 L 52.625 0 L 52.625 -40.09375 C 52.625 -45.609375 48.125 -50.125 42.609375 -50.125 Z M 12.53125 -40.09375 L 42.609375 -40.09375 L 42.609375 -30.078125 L 12.53125 -30.078125 Z M 12.53125 -40.09375 "/></g></g></g><g fill="#ff00ff" fill-opacity="1"><g transform="translate(188.630397, 180.093036)"><g><path d="M 52.625 0 L 52.625 -10.03125 L 12.53125 -10.03125 L 12.53125 -40.09375 L 52.625 -40.09375 L 52.625 -50.125 L 12.53125 -50.125 C 7.015625 -50.125 2.5 -45.609375 2.5 -40.09375 L 2.5 -10.03125 C 2.5 -4.515625 7.015625 0 12.53125 0 Z M 52.625 0 "/></g></g></g><g fill="#ff00ff" fill-opacity="1"><g transform="translate(253.661767, 180.093036)"><g><path d="M 52.625 -50.125 L 40.59375 -50.125 C 39.21875 -50.125 37.96875 -49.625 36.96875 -48.625 L 18.421875 -30.078125 L 12.53125 -30.078125 L 12.53125 -50.125 L 2.5 -50.125 L 2.5 0 L 12.53125 0 L 12.53125 -20.046875 L 18.421875 -20.046875 L 36.96875 -1.5 C 37.96875 -0.5 39.21875 0 40.59375 0 L 52.625 0 L 52.625 -10.03125 L 42.609375 -10.03125 L 27.5625 -25.0625 L 42.609375 -40.09375 L 52.625 -40.09375 Z M 52.625 -50.125 "/></g></g></g><g fill="#00ffff" fill-opacity="1"><g transform="translate(66.198291, 181.854715)"><g><path d="M 42.609375 -30.078125 L 12.53125 -30.078125 L 12.53125 -50.125 L 2.5 -50.125 L 2.5 0 L 12.53125 0 L 12.53125 -20.046875 L 42.609375 -20.046875 L 42.609375 0 L 52.625 0 L 52.625 -50.125 L 42.609375 -50.125 Z M 42.609375 -30.078125 "/></g></g></g><g fill="#00ffff" fill-opacity="1"><g transform="translate(131.229652, 181.854715)"><g><path d="M 12.53125 -50.125 C 7.015625 -50.125 2.5 -45.609375 2.5 -40.09375 L 2.5 0 L 12.53125 0 L 12.53125 -20.046875 L 42.609375 -20.046875 L 42.609375 0 L 52.625 0 L 52.625 -40.09375 C 52.625 -45.609375 48.125 -50.125 42.609375 -50.125 Z M 12.53125 -40.09375 L 42.609375 -40.09375 L 42.609375 -30.078125 L 12.53125 -30.078125 Z M 12.53125 -40.09375 "/></g></g></g><g fill="#00ffff" fill-opacity="1"><g transform="translate(196.261012, 181.854715)"><g><path d="M 52.625 0 L 52.625 -10.03125 L 12.53125 -10.03125 L 12.53125 -40.09375 L 52.625 -40.09375 L 52.625 -50.125 L 12.53125 -50.125 C 7.015625 -50.125 2.5 -45.609375 2.5 -40.09375 L 2.5 -10.03125 C 2.5 -4.515625 7.015625 0 12.53125 0 Z M 52.625 0 "/></g></g></g><g fill="#00ffff" fill-opacity="1"><g transform="translate(261.292383, 181.854715)"><g><path d="M 52.625 -50.125 L 40.59375 -50.125 C 39.21875 -50.125 37.96875 -49.625 36.96875 -48.625 L 18.421875 -30.078125 L 12.53125 -30.078125 L 12.53125 -50.125 L 2.5 -50.125 L 2.5 0 L 12.53125 0 L 12.53125 -20.046875 L 18.421875 -20.046875 L 36.96875 -1.5 C 37.96875 -0.5 39.21875 0 40.59375 0 L 52.625 0 L 52.625 -10.03125 L 42.609375 -10.03125 L 27.5625 -25.0625 L 42.609375 -40.09375 L 52.625 -40.09375 Z M 52.625 -50.125 "/></g></g></g><g fill="#ffffff" fill-opacity="1"><g transform="translate(62.382984, 180.973877)"><g><path d="M 42.609375 -30.078125 L 12.53125 -30.078125 L 12.53125 -50.125 L 2.5 -50.125 L 2.5 0 L 12.53125 0 L 12.53125 -20.046875 L 42.609375 -20.046875 L 42.609375 0 L 52.625 0 L 52.625 -50.125 L 42.609375 -50.125 Z M 42.609375 -30.078125 "/></g></g></g><g fill="#ffffff" fill-opacity="1"><g transform="translate(127.414344, 180.973877)"><g><path d="M 12.53125 -50.125 C 7.015625 -50.125 2.5 -45.609375 2.5 -40.09375 L 2.5 0 L 12.53125 0 L 12.53125 -20.046875 L 42.609375 -20.046875 L 42.609375 0 L 52.625 0 L 52.625 -40.09375 C 52.625 -45.609375 48.125 -50.125 42.609375 -50.125 Z M 12.53125 -40.09375 L 42.609375 -40.09375 L 42.609375 -30.078125 L 12.53125 -30.078125 Z M 12.53125 -40.09375 "/></g></g></g><g fill="#ffffff" fill-opacity="1"><g transform="translate(192.445705, 180.973877)"><g><path d="M 52.625 0 L 52.625 -10.03125 L 12.53125 -10.03125 L 12.53125 -40.09375 L 52.625 -40.09375 L 52.625 -50.125 L 12.53125 -50.125 C 7.015625 -50.125 2.5 -45.609375 2.5 -40.09375 L 2.5 -10.03125 C 2.5 -4.515625 7.015625 0 12.53125 0 Z M 52.625 0 "/></g></g></g><g fill="#ffffff" fill-opacity="1"><g transform="translate(257.477075, 180.973877)"><g><path d="M 52.625 -50.125 L 40.59375 -50.125 C 39.21875 -50.125 37.96875 -49.625 36.96875 -48.625 L 18.421875 -30.078125 L 12.53125 -30.078125 L 12.53125 -50.125 L 2.5 -50.125 L 2.5 0 L 12.53125 0 L 12.53125 -20.046875 L 18.421875 -20.046875 L 36.96875 -1.5 C 37.96875 -0.5 39.21875 0 40.59375 0 L 52.625 0 L 52.625 -10.03125 L 42.609375 -10.03125 L 27.5625 -25.0625 L 42.609375 -40.09375 L 52.625 -40.09375 Z M 52.625 -50.125 "/></g></g></g><g fill="#ff00ff" fill-opacity="1"><g transform="translate(7.322415, 242.743694)"><g><path d="M 12.53125 -50.125 C 7.015625 -50.125 2.5 -45.609375 2.5 -40.09375 L 2.5 0 L 12.53125 0 L 12.53125 -20.046875 L 42.609375 -20.046875 L 42.609375 0 L 52.625 0 L 52.625 -40.09375 C 52.625 -45.609375 48.125 -50.125 42.609375 -50.125 Z M 12.53125 -40.09375 L 42.609375 -40.09375 L 42.609375 -30.078125 L 12.53125 -30.078125 Z M 12.53125 -40.09375 "/></g></g></g><g fill="#ff00ff" fill-opacity="1"><g transform="translate(72.353775, 242.743694)"><g/></g></g><g fill="#ff00ff" fill-opacity="1"><g transform="translate(109.818852, 242.743694)"><g><path d="M 12.53125 -50.125 C 7.015625 -50.125 2.5 -45.609375 2.5 -40.09375 L 2.5 -10.03125 C 2.5 -4.515625 7.015625 0 12.53125 0 L 22.5625 0 L 22.5625 5.015625 L 32.578125 5.015625 L 32.578125 0 L 42.609375 0 C 48.1875 0 52.625 -4.578125 52.625 -10.03125 L 52.625 -40.09375 C 52.625 -45.609375 48.125 -50.125 42.609375 -50.125 Z M 32.578125 -10.03125 L 32.578125 -20.046875 L 22.5625 -20.046875 L 22.5625 -10.03125 L 12.53125 -10.03125 L 12.53125 -40.09375 L 42.609375 -40.09375 L 42.609375 -10.03125 Z M 32.578125 -10.03125 "/></g></g></g><g fill="#ff00ff" fill-opacity="1"><g transform="translate(174.850222, 242.743694)"><g><path d="M 42.609375 0 C 48.125 0 52.625 -4.515625 52.625 -10.03125 L 52.625 -50.125 L 42.609375 -50.125 L 42.609375 -10.03125 L 12.53125 -10.03125 L 12.53125 -50.125 L 2.5 -50.125 L 2.5 -10.03125 C 2.5 -4.515625 7.015625 0 12.53125 0 Z M 42.609375 0 "/></g></g></g><g fill="#ff00ff" fill-opacity="1"><g transform="translate(239.881573, 242.743694)"><g><path d="M 52.625 0 L 52.625 -10.03125 L 32.578125 -10.03125 L 32.578125 -40.09375 L 52.625 -40.09375 L 52.625 -50.125 L 2.5 -50.125 L 2.5 -40.09375 L 22.5625 -40.09375 L 22.5625 -10.03125 L 2.5 -10.03125 L 2.5 0 Z M 52.625 0 "/></g></g></g><g fill="#ff00ff" fill-opacity="1"><g transform="translate(304.912924, 242.743694)"><g><path d="M 52.625 -10.03125 L 19.609375 -10.03125 L 51.125 -41.546875 C 52.0625 -42.484375 52.625 -43.734375 52.625 -45.109375 C 52.625 -47.875 50.375 -50.125 47.625 -50.125 L 2.5 -50.125 L 2.5 -40.09375 L 35.53125 -40.09375 L 4.015625 -8.578125 C 3.0625 -7.640625 2.5 -6.390625 2.5 -5.015625 C 2.5 -2.25 4.765625 0 7.515625 0 L 52.625 0 Z M 52.625 -10.03125 "/></g></g></g><g fill="#00ffff" fill-opacity="1"><g transform="translate(14.95303, 244.505373)"><g><path d="M 12.53125 -50.125 C 7.015625 -50.125 2.5 -45.609375 2.5 -40.09375 L 2.5 0 L 12.53125 0 L 12.53125 -20.046875 L 42.609375 -20.046875 L 42.609375 0 L 52.625 0 L 52.625 -40.09375 C 52.625 -45.609375 48.125 -50.125 42.609375 -50.125 Z M 12.53125 -40.09375 L 42.609375 -40.09375 L 42.609375 -30.078125 L 12.53125 -30.078125 Z M 12.53125 -40.09375 "/></g></g></g><g fill="#00ffff" fill-opacity="1"><g transform="translate(79.984391, 244.505373)"><g/></g></g><g fill="#00ffff" fill-opacity="1"><g transform="translate(117.449468, 244.505373)"><g><path d="M 12.53125 -50.125 C 7.015625 -50.125 2.5 -45.609375 2.5 -40.09375 L 2.5 -10.03125 C 2.5 -4.515625 7.015625 0 12.53125 0 L 22.5625 0 L 22.5625 5.015625 L 32.578125 5.015625 L 32.578125 0 L 42.609375 0 C 48.1875 0 52.625 -4.578125 52.625 -10.03125 L 52.625 -40.09375 C 52.625 -45.609375 48.125 -50.125 42.609375 -50.125 Z M 32.578125 -10.03125 L 32.578125 -20.046875 L 22.5625 -20.046875 L 22.5625 -10.03125 L 12.53125 -10.03125 L 12.53125 -40.09375 L 42.609375 -40.09375 L 42.609375 -10.03125 Z M 32.578125 -10.03125 "/></g></g></g><g fill="#00ffff" fill-opacity="1"><g transform="translate(182.480838, 244.505373)"><g><path d="M 42.609375 0 C 48.125 0 52.625 -4.515625 52.625 -10.03125 L 52.625 -50.125 L 42.609375 -50.125 L 42.609375 -10.03125 L 12.53125 -10.03125 L 12.53125 -50.125 L 2.5 -50.125 L 2.5 -10.03125 C 2.5 -4.515625 7.015625 0 12.53125 0 Z M 42.609375 0 "/></g></g></g><g fill="#00ffff" fill-opacity="1"><g transform="translate(247.512189, 244.505373)"><g><path d="M 52.625 0 L 52.625 -10.03125 L 32.578125 -10.03125 L 32.578125 -40.09375 L 52.625 -40.09375 L 52.625 -50.125 L 2.5 -50.125 L 2.5 -40.09375 L 22.5625 -40.09375 L 22.5625 -10.03125 L 2.5 -10.03125 L 2.5 0 Z M 52.625 0 "/></g></g></g><g fill="#00ffff" fill-opacity="1"><g transform="translate(312.543539, 244.505373)"><g><path d="M 52.625 -10.03125 L 19.609375 -10.03125 L 51.125 -41.546875 C 52.0625 -42.484375 52.625 -43.734375 52.625 -45.109375 C 52.625 -47.875 50.375 -50.125 47.625 -50.125 L 2.5 -50.125 L 2.5 -40.09375 L 35.53125 -40.09375 L 4.015625 -8.578125 C 3.0625 -7.640625 2.5 -6.390625 2.5 -5.015625 C 2.5 -2.25 4.765625 0 7.515625 0 L 52.625 0 Z M 52.625 -10.03125 "/></g></g></g><g fill="#ffffff" fill-opacity="1"><g transform="translate(11.137723, 243.624535)"><g><path d="M 12.53125 -50.125 C 7.015625 -50.125 2.5 -45.609375 2.5 -40.09375 L 2.5 0 L 12.53125 0 L 12.53125 -20.046875 L 42.609375 -20.046875 L 42.609375 0 L 52.625 0 L 52.625 -40.09375 C 52.625 -45.609375 48.125 -50.125 42.609375 -50.125 Z M 12.53125 -40.09375 L 42.609375 -40.09375 L 42.609375 -30.078125 L 12.53125 -30.078125 Z M 12.53125 -40.09375 "/></g></g></g><g fill="#ffffff" fill-opacity="1"><g transform="translate(76.169083, 243.624535)"><g/></g></g><g fill="#ffffff" fill-opacity="1"><g transform="translate(113.63416, 243.624535)"><g><path d="M 12.53125 -50.125 C 7.015625 -50.125 2.5 -45.609375 2.5 -40.09375 L 2.5 -10.03125 C 2.5 -4.515625 7.015625 0 12.53125 0 L 22.5625 0 L 22.5625 5.015625 L 32.578125 5.015625 L 32.578125 0 L 42.609375 0 C 48.1875 0 52.625 -4.578125 52.625 -10.03125 L 52.625 -40.09375 C 52.625 -45.609375 48.125 -50.125 42.609375 -50.125 Z M 32.578125 -10.03125 L 32.578125 -20.046875 L 22.5625 -20.046875 L 22.5625 -10.03125 L 12.53125 -10.03125 L 12.53125 -40.09375 L 42.609375 -40.09375 L 42.609375 -10.03125 Z M 32.578125 -10.03125 "/></g></g></g><g fill="#ffffff" fill-opacity="1"><g transform="translate(178.66553, 243.624535)"><g><path d="M 42.609375 0 C 48.125 0 52.625 -4.515625 52.625 -10.03125 L 52.625 -50.125 L 42.609375 -50.125 L 42.609375 -10.03125 L 12.53125 -10.03125 L 12.53125 -50.125 L 2.5 -50.125 L 2.5 -10.03125 C 2.5 -4.515625 7.015625 0 12.53125 0 Z M 42.609375 0 "/></g></g></g><g fill="#ffffff" fill-opacity="1"><g transform="translate(243.696881, 243.624535)"><g><path d="M 52.625 0 L 52.625 -10.03125 L 32.578125 -10.03125 L 32.578125 -40.09375 L 52.625 -40.09375 L 52.625 -50.125 L 2.5 -50.125 L 2.5 -40.09375 L 22.5625 -40.09375 L 22.5625 -10.03125 L 2.5 -10.03125 L 2.5 0 Z M 52.625 0 "/></g></g></g><g fill="#ffffff" fill-opacity="1"><g transform="translate(308.728232, 243.624535)"><g><path d="M 52.625 -10.03125 L 19.609375 -10.03125 L 51.125 -41.546875 C 52.0625 -42.484375 52.625 -43.734375 52.625 -45.109375 C 52.625 -47.875 50.375 -50.125 47.625 -50.125 L 2.5 -50.125 L 2.5 -40.09375 L 35.53125 -40.09375 L 4.015625 -8.578125 C 3.0625 -7.640625 2.5 -6.390625 2.5 -5.015625 C 2.5 -2.25 4.765625 0 7.515625 0 L 52.625 0 Z M 52.625 -10.03125 "/></g></g></g></svg>