<svg xmlns="http://www.w3.org/2000/svg" xmlns:xlink="http://www.w3.org/1999/xlink" width="500" zoomAndPan="magnify" viewBox="0 0 375 374.999991" height="500" preserveAspectRatio="xMidYMid meet" version="1.0"><defs><g/></defs><g fill="#ff00ff" fill-opacity="1"><g transform="translate(33.841881, 179.141609)"><g><path d="M 6.421875 -66.078125 C 7.359375 -65.328125 8.03125 -64.859375 8.3125 -64.484375 C 8.875 -63.90625 9.25 -63.4375 9.4375 -63.0625 C 9.625 -62.78125 9.625 -62.3125 9.625 -61.734375 C 9.625 -61.546875 9.53125 -60.984375 9.34375 -60.140625 L 6.328125 -38.515625 L 2.828125 -13.3125 L 0.9375 0 L 1.796875 0 C 5.28125 0 7.640625 -0.09375 8.96875 -0.28125 C 10.859375 -0.46875 12.171875 -1.03125 13.03125 -1.796875 C 13.875 -2.546875 14.53125 -3.875 14.921875 -5.671875 C 15.296875 -6.984375 15.671875 -9.53125 16.234375 -13.3125 L 19.0625 -33.515625 L 39.84375 -33.515625 L 37 -13.3125 L 35.125 0 L 36.0625 0 C 39.65625 0 42.109375 -0.09375 43.421875 -0.28125 C 45.6875 -0.65625 47.296875 -1.421875 48.046875 -2.640625 C 48.625 -3.59375 49.09375 -4.90625 49.46875 -6.609375 C 49.65625 -7.734375 50.03125 -10 50.40625 -13.3125 L 53.25 -33.515625 C 53.8125 -37.109375 54.09375 -39.5625 54.09375 -40.6875 L 54.09375 -41.640625 C 54.09375 -43.328125 53.8125 -44.46875 53.25 -45.125 C 52.578125 -45.875 51.359375 -46.453125 49.5625 -46.640625 C 48.4375 -46.828125 46.359375 -46.828125 43.328125 -46.828125 L 20.953125 -46.828125 L 21.8125 -52.765625 C 22.46875 -56.640625 22.84375 -59.1875 22.84375 -60.421875 C 22.9375 -60.796875 22.9375 -61.078125 22.9375 -61.265625 C 22.9375 -62.6875 22.65625 -63.71875 22.09375 -64.390625 C 21.71875 -64.953125 20.953125 -65.421875 19.828125 -65.609375 C 18.96875 -65.890625 17.75 -66.078125 16.140625 -66.078125 Z M 6.421875 -66.078125 "/></g></g></g><g fill="#ff00ff" fill-opacity="1"><g transform="translate(88.876803, 179.141609)"><g><path d="M 43.046875 -46.828125 L 6.515625 -46.828125 L 6.515625 -45.21875 C 6.515625 -42.765625 6.609375 -40.875 6.609375 -39.75 C 6.796875 -37.671875 7.171875 -36.25 7.734375 -35.40625 C 8.40625 -34.546875 9.53125 -33.984375 11.234375 -33.703125 C 12.375 -33.609375 14.734375 -33.515625 18.125 -33.515625 L 38.890625 -33.515625 C 38.796875 -32.46875 38.703125 -31.8125 38.609375 -31.4375 C 38.609375 -31.0625 38.515625 -30.78125 38.328125 -30.59375 C 38.140625 -30.40625 37.859375 -30.203125 37.484375 -30.109375 C 37.296875 -30.109375 36.71875 -30.015625 35.96875 -30.015625 L 16.234375 -30.015625 C 12.75 -30.015625 10.296875 -29.921875 8.96875 -29.734375 C 7.359375 -29.546875 6.140625 -28.984375 5.28125 -28.140625 C 4.53125 -27.375 3.875 -25.875 3.40625 -23.609375 C 3.203125 -22.46875 2.828125 -20.203125 2.359375 -16.796875 L 1.796875 -13.3125 C 1.328125 -9.53125 1.03125 -6.984375 0.9375 -5.671875 L 0.9375 -5.09375 C 0.9375 -3.59375 1.140625 -2.546875 1.703125 -1.796875 C 2.265625 -1.140625 3.203125 -0.65625 4.53125 -0.375 C 5.859375 -0.1875 8.78125 0 13.3125 0 L 33.796875 0 C 38.515625 0 41.53125 -0.1875 42.859375 -0.375 C 44.1875 -0.65625 45.21875 -1.03125 45.96875 -1.609375 C 46.828125 -2.265625 47.484375 -3.296875 47.859375 -4.625 C 48.34375 -5.953125 48.90625 -8.78125 49.46875 -13.3125 L 50.796875 -22.9375 L 52.296875 -33.515625 C 52.765625 -36.90625 53.0625 -39.171875 53.0625 -40.3125 C 53.15625 -40.875 53.15625 -41.25 53.15625 -41.640625 C 53.15625 -43.609375 52.671875 -44.9375 51.734375 -45.59375 C 51.171875 -46.0625 50.21875 -46.359375 48.90625 -46.546875 C 47.765625 -46.734375 45.78125 -46.828125 43.046875 -46.828125 Z M 17.9375 -16.796875 L 36.53125 -16.796875 C 36.4375 -15.765625 36.34375 -15.109375 36.25 -14.734375 C 36.15625 -14.34375 36.0625 -13.96875 35.875 -13.78125 C 35.78125 -13.59375 35.59375 -13.5 35.21875 -13.40625 C 35.03125 -13.40625 34.453125 -13.3125 33.703125 -13.3125 L 15.203125 -13.3125 C 15.390625 -14.0625 15.484375 -14.640625 15.484375 -14.921875 C 15.578125 -15.671875 15.671875 -16.140625 15.859375 -16.328125 C 16.046875 -16.515625 16.234375 -16.703125 16.515625 -16.703125 C 16.703125 -16.796875 17.1875 -16.796875 17.9375 -16.796875 Z M 17.9375 -16.796875 "/></g></g></g><g fill="#ff00ff" fill-opacity="1"><g transform="translate(142.873329, 179.141609)"><g><path d="M 18.6875 -46.734375 C 15.296875 -46.734375 12.9375 -46.640625 11.609375 -46.453125 C 9.90625 -46.265625 8.6875 -45.78125 7.828125 -45.03125 C 6.984375 -44.28125 6.328125 -42.859375 5.859375 -40.875 C 5.671875 -39.65625 5.28125 -37.203125 4.71875 -33.421875 C 4.4375 -31.15625 3.96875 -27.84375 3.296875 -23.3125 C 2.734375 -18.78125 2.265625 -15.484375 1.890625 -13.21875 C 1.328125 -9.53125 1.03125 -7.078125 0.9375 -5.765625 L 0.9375 -5.09375 C 0.9375 -3.78125 1.234375 -2.734375 1.609375 -1.984375 C 2.171875 -1.234375 3.109375 -0.65625 4.4375 -0.375 C 5.765625 -0.1875 8.6875 0 13.21875 0 L 34.359375 0 C 38.234375 0 40.78125 -0.09375 42.015625 -0.1875 C 43.90625 -0.375 45.3125 -0.84375 46.171875 -1.515625 C 47.109375 -2.265625 47.765625 -3.59375 48.140625 -5.28125 C 48.53125 -6.609375 48.90625 -9.25 49.46875 -13.21875 L 15.296875 -13.21875 L 17.65625 -30.015625 C 17.84375 -30.96875 17.9375 -31.53125 17.9375 -31.90625 C 18.125 -32.46875 18.3125 -32.859375 18.5 -33.046875 C 18.6875 -33.234375 18.96875 -33.328125 19.359375 -33.328125 C 19.546875 -33.421875 20.015625 -33.515625 20.578125 -33.515625 C 20.953125 -33.515625 21.4375 -33.421875 22 -33.421875 L 38.890625 -33.421875 C 42.484375 -33.515625 44.84375 -33.609375 46.0625 -33.609375 C 48.34375 -33.796875 50.03125 -34.359375 50.984375 -35.21875 C 51.828125 -35.96875 52.484375 -37.296875 52.875 -39.078125 C 53.25 -40.40625 53.625 -42.953125 54.1875 -46.734375 Z M 18.6875 -46.734375 "/></g></g></g><g fill="#ff00ff" fill-opacity="1"><g transform="translate(196.492269, 179.141609)"><g><path d="M 10 -66.078125 L 8.21875 -52.875 L 7.359375 -46.828125 L 5.46875 -33.515625 L 5 -30.015625 L 3.109375 -16.796875 L 2.640625 -13.3125 L 1.703125 -6.796875 C 1.609375 -5.953125 1.515625 -5.375 1.515625 -5 C 1.421875 -4.53125 1.234375 -4.15625 1.03125 -3.78125 C 0.84375 -3.296875 0.46875 -2.828125 -0.09375 -2.265625 C -0.46875 -1.890625 -1.328125 -1.140625 -2.828125 0 L 1.234375 0 C 6.140625 0 9.25 -0.1875 10.578125 -0.5625 C 11.890625 -0.9375 12.84375 -1.609375 13.5 -2.546875 C 14.15625 -3.5 14.640625 -4.90625 15.015625 -6.890625 C 15.296875 -8.03125 15.671875 -10.203125 16.046875 -13.3125 L 16.515625 -16.796875 L 37.296875 -16.796875 L 36.8125 -13.3125 L 34.9375 0 C 39.65625 0 42.578125 -0.1875 43.90625 -0.375 C 45.40625 -0.75 46.453125 -1.234375 47.203125 -1.984375 C 47.953125 -2.734375 48.625 -4.0625 49 -5.765625 C 49.375 -7.078125 49.75 -9.53125 50.21875 -13.3125 L 50.703125 -16.796875 C 50.796875 -17.28125 50.890625 -17.75 50.890625 -18.21875 C 50.890625 -18.5 50.796875 -18.78125 50.796875 -19.0625 C 50.796875 -19.828125 50.609375 -20.390625 50.40625 -20.859375 C 50.21875 -21.53125 49.84375 -22.09375 49.375 -22.46875 C 48.90625 -22.9375 48.234375 -23.3125 47.484375 -23.5 C 48.34375 -23.796875 49 -24.078125 49.5625 -24.453125 C 50.125 -24.828125 50.5 -25.203125 50.890625 -25.671875 C 51.265625 -26.25 51.640625 -26.8125 51.828125 -27.46875 C 52.203125 -28.234375 52.390625 -29.078125 52.578125 -30.015625 L 54.9375 -46.828125 L 54.75 -46.828125 C 50.125 -46.828125 47.109375 -46.734375 45.78125 -46.453125 C 44.1875 -46.171875 42.953125 -45.5 42.203125 -44.46875 C 41.640625 -43.609375 41.0625 -42.203125 40.6875 -40.3125 C 40.5 -39.171875 40.125 -36.90625 39.65625 -33.609375 L 39.171875 -30.015625 L 18.40625 -30.015625 L 18.875 -33.515625 L 20.765625 -46.828125 L 21.625 -52.765625 C 22 -55.890625 22.28125 -57.96875 22.375 -59.09375 C 22.46875 -59.859375 22.46875 -60.421875 22.46875 -60.984375 C 22.46875 -62.3125 22.28125 -63.25 21.90625 -63.90625 C 21.4375 -64.953125 20.296875 -65.609375 18.5 -65.796875 C 17.28125 -65.984375 14.4375 -66.078125 10 -66.078125 Z M 10 -66.078125 "/></g></g></g><g fill="#ff00ff" fill-opacity="1"><g transform="translate(250.866396, 179.141609)"><g/></g></g><g fill="#ff00ff" fill-opacity="1"><g transform="translate(279.186255, 179.141609)"><g><path d="M 43.046875 -46.828125 L 6.515625 -46.828125 L 6.515625 -45.21875 C 6.515625 -42.765625 6.609375 -40.875 6.609375 -39.75 C 6.796875 -37.671875 7.171875 -36.25 7.734375 -35.40625 C 8.40625 -34.546875 9.53125 -33.984375 11.234375 -33.703125 C 12.375 -33.609375 14.734375 -33.515625 18.125 -33.515625 L 38.890625 -33.515625 C 38.796875 -32.46875 38.703125 -31.8125 38.609375 -31.4375 C 38.609375 -31.0625 38.515625 -30.78125 38.328125 -30.59375 C 38.140625 -30.40625 37.859375 -30.203125 37.484375 -30.109375 C 37.296875 -30.109375 36.71875 -30.015625 35.96875 -30.015625 L 16.234375 -30.015625 C 12.75 -30.015625 10.296875 -29.921875 8.96875 -29.734375 C 7.359375 -29.546875 6.140625 -28.984375 5.28125 -28.140625 C 4.53125 -27.375 3.875 -25.875 3.40625 -23.609375 C 3.203125 -22.46875 2.828125 -20.203125 2.359375 -16.796875 L 1.796875 -13.3125 C 1.328125 -9.53125 1.03125 -6.984375 0.9375 -5.671875 L 0.9375 -5.09375 C 0.9375 -3.59375 1.140625 -2.546875 1.703125 -1.796875 C 2.265625 -1.140625 3.203125 -0.65625 4.53125 -0.375 C 5.859375 -0.1875 8.78125 0 13.3125 0 L 33.796875 0 C 38.515625 0 41.53125 -0.1875 42.859375 -0.375 C 44.1875 -0.65625 45.21875 -1.03125 45.96875 -1.609375 C 46.828125 -2.265625 47.484375 -3.296875 47.859375 -4.625 C 48.34375 -5.953125 48.90625 -8.78125 49.46875 -13.3125 L 50.796875 -22.9375 L 52.296875 -33.515625 C 52.765625 -36.90625 53.0625 -39.171875 53.0625 -40.3125 C 53.15625 -40.875 53.15625 -41.25 53.15625 -41.640625 C 53.15625 -43.609375 52.671875 -44.9375 51.734375 -45.59375 C 51.171875 -46.0625 50.21875 -46.359375 48.90625 -46.546875 C 47.765625 -46.734375 45.78125 -46.828125 43.046875 -46.828125 Z M 17.9375 -16.796875 L 36.53125 -16.796875 C 36.4375 -15.765625 36.34375 -15.109375 36.25 -14.734375 C 36.15625 -14.34375 36.0625 -13.96875 35.875 -13.78125 C 35.78125 -13.59375 35.59375 -13.5 35.21875 -13.40625 C 35.03125 -13.40625 34.453125 -13.3125 33.703125 -13.3125 L 15.203125 -13.3125 C 15.390625 -14.0625 15.484375 -14.640625 15.484375 -14.921875 C 15.578125 -15.671875 15.671875 -16.140625 15.859375 -16.328125 C 16.046875 -16.515625 16.234375 -16.703125 16.515625 -16.703125 C 16.703125 -16.796875 17.1875 -16.796875 17.9375 -16.796875 Z M 17.9375 -16.796875 "/></g></g></g><g fill="#00ffff" fill-opacity="1"><g transform="translate(29.121903, 179.141609)"><g><path d="M 6.421875 -66.078125 C 7.359375 -65.328125 8.03125 -64.859375 8.3125 -64.484375 C 8.875 -63.90625 9.25 -63.4375 9.4375 -63.0625 C 9.625 -62.78125 9.625 -62.3125 9.625 -61.734375 C 9.625 -61.546875 9.53125 -60.984375 9.34375 -60.140625 L 6.328125 -38.515625 L 2.828125 -13.3125 L 0.9375 0 L 1.796875 0 C 5.28125 0 7.640625 -0.09375 8.96875 -0.28125 C 10.859375 -0.46875 12.171875 -1.03125 13.03125 -1.796875 C 13.875 -2.546875 14.53125 -3.875 14.921875 -5.671875 C 15.296875 -6.984375 15.671875 -9.53125 16.234375 -13.3125 L 19.0625 -33.515625 L 39.84375 -33.515625 L 37 -13.3125 L 35.125 0 L 36.0625 0 C 39.65625 0 42.109375 -0.09375 43.421875 -0.28125 C 45.6875 -0.65625 47.296875 -1.421875 48.046875 -2.640625 C 48.625 -3.59375 49.09375 -4.90625 49.46875 -6.609375 C 49.65625 -7.734375 50.03125 -10 50.40625 -13.3125 L 53.25 -33.515625 C 53.8125 -37.109375 54.09375 -39.5625 54.09375 -40.6875 L 54.09375 -41.640625 C 54.09375 -43.328125 53.8125 -44.46875 53.25 -45.125 C 52.578125 -45.875 51.359375 -46.453125 49.5625 -46.640625 C 48.4375 -46.828125 46.359375 -46.828125 43.328125 -46.828125 L 20.953125 -46.828125 L 21.8125 -52.765625 C 22.46875 -56.640625 22.84375 -59.1875 22.84375 -60.421875 C 22.9375 -60.796875 22.9375 -61.078125 22.9375 -61.265625 C 22.9375 -62.6875 22.65625 -63.71875 22.09375 -64.390625 C 21.71875 -64.953125 20.953125 -65.421875 19.828125 -65.609375 C 18.96875 -65.890625 17.75 -66.078125 16.140625 -66.078125 Z M 6.421875 -66.078125 "/></g></g></g><g fill="#00ffff" fill-opacity="1"><g transform="translate(84.156824, 179.141609)"><g><path d="M 43.046875 -46.828125 L 6.515625 -46.828125 L 6.515625 -45.21875 C 6.515625 -42.765625 6.609375 -40.875 6.609375 -39.75 C 6.796875 -37.671875 7.171875 -36.25 7.734375 -35.40625 C 8.40625 -34.546875 9.53125 -33.984375 11.234375 -33.703125 C 12.375 -33.609375 14.734375 -33.515625 18.125 -33.515625 L 38.890625 -33.515625 C 38.796875 -32.46875 38.703125 -31.8125 38.609375 -31.4375 C 38.609375 -31.0625 38.515625 -30.78125 38.328125 -30.59375 C 38.140625 -30.40625 37.859375 -30.203125 37.484375 -30.109375 C 37.296875 -30.109375 36.71875 -30.015625 35.96875 -30.015625 L 16.234375 -30.015625 C 12.75 -30.015625 10.296875 -29.921875 8.96875 -29.734375 C 7.359375 -29.546875 6.140625 -28.984375 5.28125 -28.140625 C 4.53125 -27.375 3.875 -25.875 3.40625 -23.609375 C 3.203125 -22.46875 2.828125 -20.203125 2.359375 -16.796875 L 1.796875 -13.3125 C 1.328125 -9.53125 1.03125 -6.984375 0.9375 -5.671875 L 0.9375 -5.09375 C 0.9375 -3.59375 1.140625 -2.546875 1.703125 -1.796875 C 2.265625 -1.140625 3.203125 -0.65625 4.53125 -0.375 C 5.859375 -0.1875 8.78125 0 13.3125 0 L 33.796875 0 C 38.515625 0 41.53125 -0.1875 42.859375 -0.375 C 44.1875 -0.65625 45.21875 -1.03125 45.96875 -1.609375 C 46.828125 -2.265625 47.484375 -3.296875 47.859375 -4.625 C 48.34375 -5.953125 48.90625 -8.78125 49.46875 -13.3125 L 50.796875 -22.9375 L 52.296875 -33.515625 C 52.765625 -36.90625 53.0625 -39.171875 53.0625 -40.3125 C 53.15625 -40.875 53.15625 -41.25 53.15625 -41.640625 C 53.15625 -43.609375 52.671875 -44.9375 51.734375 -45.59375 C 51.171875 -46.0625 50.21875 -46.359375 48.90625 -46.546875 C 47.765625 -46.734375 45.78125 -46.828125 43.046875 -46.828125 Z M 17.9375 -16.796875 L 36.53125 -16.796875 C 36.4375 -15.765625 36.34375 -15.109375 36.25 -14.734375 C 36.15625 -14.34375 36.0625 -13.96875 35.875 -13.78125 C 35.78125 -13.59375 35.59375 -13.5 35.21875 -13.40625 C 35.03125 -13.40625 34.453125 -13.3125 33.703125 -13.3125 L 15.203125 -13.3125 C 15.390625 -14.0625 15.484375 -14.640625 15.484375 -14.921875 C 15.578125 -15.671875 15.671875 -16.140625 15.859375 -16.328125 C 16.046875 -16.515625 16.234375 -16.703125 16.515625 -16.703125 C 16.703125 -16.796875 17.1875 -16.796875 17.9375 -16.796875 Z M 17.9375 -16.796875 "/></g></g></g><g fill="#00ffff" fill-opacity="1"><g transform="translate(138.15335, 179.141609)"><g><path d="M 18.6875 -46.734375 C 15.296875 -46.734375 12.9375 -46.640625 11.609375 -46.453125 C 9.90625 -46.265625 8.6875 -45.78125 7.828125 -45.03125 C 6.984375 -44.28125 6.328125 -42.859375 5.859375 -40.875 C 5.671875 -39.65625 5.28125 -37.203125 4.71875 -33.421875 C 4.4375 -31.15625 3.96875 -27.84375 3.296875 -23.3125 C 2.734375 -18.78125 2.265625 -15.484375 1.890625 -13.21875 C 1.328125 -9.53125 1.03125 -7.078125 0.9375 -5.765625 L 0.9375 -5.09375 C 0.9375 -3.78125 1.234375 -2.734375 1.609375 -1.984375 C 2.171875 -1.234375 3.109375 -0.65625 4.4375 -0.375 C 5.765625 -0.1875 8.6875 0 13.21875 0 L 34.359375 0 C 38.234375 0 40.78125 -0.09375 42.015625 -0.1875 C 43.90625 -0.375 45.3125 -0.84375 46.171875 -1.515625 C 47.109375 -2.265625 47.765625 -3.59375 48.140625 -5.28125 C 48.53125 -6.609375 48.90625 -9.25 49.46875 -13.21875 L 15.296875 -13.21875 L 17.65625 -30.015625 C 17.84375 -30.96875 17.9375 -31.53125 17.9375 -31.90625 C 18.125 -32.46875 18.3125 -32.859375 18.5 -33.046875 C 18.6875 -33.234375 18.96875 -33.328125 19.359375 -33.328125 C 19.546875 -33.421875 20.015625 -33.515625 20.578125 -33.515625 C 20.953125 -33.515625 21.4375 -33.421875 22 -33.421875 L 38.890625 -33.421875 C 42.484375 -33.515625 44.84375 -33.609375 46.0625 -33.609375 C 48.34375 -33.796875 50.03125 -34.359375 50.984375 -35.21875 C 51.828125 -35.96875 52.484375 -37.296875 52.875 -39.078125 C 53.25 -40.40625 53.625 -42.953125 54.1875 -46.734375 Z M 18.6875 -46.734375 "/></g></g></g><g fill="#00ffff" fill-opacity="1"><g transform="translate(191.772291, 179.141609)"><g><path d="M 10 -66.078125 L 8.21875 -52.875 L 7.359375 -46.828125 L 5.46875 -33.515625 L 5 -30.015625 L 3.109375 -16.796875 L 2.640625 -13.3125 L 1.703125 -6.796875 C 1.609375 -5.953125 1.515625 -5.375 1.515625 -5 C 1.421875 -4.53125 1.234375 -4.15625 1.03125 -3.78125 C 0.84375 -3.296875 0.46875 -2.828125 -0.09375 -2.265625 C -0.46875 -1.890625 -1.328125 -1.140625 -2.828125 0 L 1.234375 0 C 6.140625 0 9.25 -0.1875 10.578125 -0.5625 C 11.890625 -0.9375 12.84375 -1.609375 13.5 -2.546875 C 14.15625 -3.5 14.640625 -4.90625 15.015625 -6.890625 C 15.296875 -8.03125 15.671875 -10.203125 16.046875 -13.3125 L 16.515625 -16.796875 L 37.296875 -16.796875 L 36.8125 -13.3125 L 34.9375 0 C 39.65625 0 42.578125 -0.1875 43.90625 -0.375 C 45.40625 -0.75 46.453125 -1.234375 47.203125 -1.984375 C 47.953125 -2.734375 48.625 -4.0625 49 -5.765625 C 49.375 -7.078125 49.75 -9.53125 50.21875 -13.3125 L 50.703125 -16.796875 C 50.796875 -17.28125 50.890625 -17.75 50.890625 -18.21875 C 50.890625 -18.5 50.796875 -18.78125 50.796875 -19.0625 C 50.796875 -19.828125 50.609375 -20.390625 50.40625 -20.859375 C 50.21875 -21.53125 49.84375 -22.09375 49.375 -22.46875 C 48.90625 -22.9375 48.234375 -23.3125 47.484375 -23.5 C 48.34375 -23.796875 49 -24.078125 49.5625 -24.453125 C 50.125 -24.828125 50.5 -25.203125 50.890625 -25.671875 C 51.265625 -26.25 51.640625 -26.8125 51.828125 -27.46875 C 52.203125 -28.234375 52.390625 -29.078125 52.578125 -30.015625 L 54.9375 -46.828125 L 54.75 -46.828125 C 50.125 -46.828125 47.109375 -46.734375 45.78125 -46.453125 C 44.1875 -46.171875 42.953125 -45.5 42.203125 -44.46875 C 41.640625 -43.609375 41.0625 -42.203125 40.6875 -40.3125 C 40.5 -39.171875 40.125 -36.90625 39.65625 -33.609375 L 39.171875 -30.015625 L 18.40625 -30.015625 L 18.875 -33.515625 L 20.765625 -46.828125 L 21.625 -52.765625 C 22 -55.890625 22.28125 -57.96875 22.375 -59.09375 C 22.46875 -59.859375 22.46875 -60.421875 22.46875 -60.984375 C 22.46875 -62.3125 22.28125 -63.25 21.90625 -63.90625 C 21.4375 -64.953125 20.296875 -65.609375 18.5 -65.796875 C 17.28125 -65.984375 14.4375 -66.078125 10 -66.078125 Z M 10 -66.078125 "/></g></g></g><g fill="#00ffff" fill-opacity="1"><g transform="translate(246.146417, 179.141609)"><g/></g></g><g fill="#00ffff" fill-opacity="1"><g transform="translate(274.466276, 179.141609)"><g><path d="M 43.046875 -46.828125 L 6.515625 -46.828125 L 6.515625 -45.21875 C 6.515625 -42.765625 6.609375 -40.875 6.609375 -39.75 C 6.796875 -37.671875 7.171875 -36.25 7.734375 -35.40625 C 8.40625 -34.546875 9.53125 -33.984375 11.234375 -33.703125 C 12.375 -33.609375 14.734375 -33.515625 18.125 -33.515625 L 38.890625 -33.515625 C 38.796875 -32.46875 38.703125 -31.8125 38.609375 -31.4375 C 38.609375 -31.0625 38.515625 -30.78125 38.328125 -30.59375 C 38.140625 -30.40625 37.859375 -30.203125 37.484375 -30.109375 C 37.296875 -30.109375 36.71875 -30.015625 35.96875 -30.015625 L 16.234375 -30.015625 C 12.75 -30.015625 10.296875 -29.921875 8.96875 -29.734375 C 7.359375 -29.546875 6.140625 -28.984375 5.28125 -28.140625 C 4.53125 -27.375 3.875 -25.875 3.40625 -23.609375 C 3.203125 -22.46875 2.828125 -20.203125 2.359375 -16.796875 L 1.796875 -13.3125 C 1.328125 -9.53125 1.03125 -6.984375 0.9375 -5.671875 L 0.9375 -5.09375 C 0.9375 -3.59375 1.140625 -2.546875 1.703125 -1.796875 C 2.265625 -1.140625 3.203125 -0.65625 4.53125 -0.375 C 5.859375 -0.1875 8.78125 0 13.3125 0 L 33.796875 0 C 38.515625 0 41.53125 -0.1875 42.859375 -0.375 C 44.1875 -0.65625 45.21875 -1.03125 45.96875 -1.609375 C 46.828125 -2.265625 47.484375 -3.296875 47.859375 -4.625 C 48.34375 -5.953125 48.90625 -8.78125 49.46875 -13.3125 L 50.796875 -22.9375 L 52.296875 -33.515625 C 52.765625 -36.90625 53.0625 -39.171875 53.0625 -40.3125 C 53.15625 -40.875 53.15625 -41.25 53.15625 -41.640625 C 53.15625 -43.609375 52.671875 -44.9375 51.734375 -45.59375 C 51.171875 -46.0625 50.21875 -46.359375 48.90625 -46.546875 C 47.765625 -46.734375 45.78125 -46.828125 43.046875 -46.828125 Z M 17.9375 -16.796875 L 36.53125 -16.796875 C 36.4375 -15.765625 36.34375 -15.109375 36.25 -14.734375 C 36.15625 -14.34375 36.0625 -13.96875 35.875 -13.78125 C 35.78125 -13.59375 35.59375 -13.5 35.21875 -13.40625 C 35.03125 -13.40625 34.453125 -13.3125 33.703125 -13.3125 L 15.203125 -13.3125 C 15.390625 -14.0625 15.484375 -14.640625 15.484375 -14.921875 C 15.578125 -15.671875 15.671875 -16.140625 15.859375 -16.328125 C 16.046875 -16.515625 16.234375 -16.703125 16.515625 -16.703125 C 16.703125 -16.796875 17.1875 -16.796875 17.9375 -16.796875 Z M 17.9375 -16.796875 "/></g></g></g><g fill="#ee3ec9" fill-opacity="1"><g transform="translate(31.481892, 179.141609)"><g><path d="M 6.421875 -66.078125 C 7.359375 -65.328125 8.03125 -64.859375 8.3125 -64.484375 C 8.875 -63.90625 9.25 -63.4375 9.4375 -63.0625 C 9.625 -62.78125 9.625 -62.3125 9.625 -61.734375 C 9.625 -61.546875 9.53125 -60.984375 9.34375 -60.140625 L 6.328125 -38.515625 L 2.828125 -13.3125 L 0.9375 0 L 1.796875 0 C 5.28125 0 7.640625 -0.09375 8.96875 -0.28125 C 10.859375 -0.46875 12.171875 -1.03125 13.03125 -1.796875 C 13.875 -2.546875 14.53125 -3.875 14.921875 -5.671875 C 15.296875 -6.984375 15.671875 -9.53125 16.234375 -13.3125 L 19.0625 -33.515625 L 39.84375 -33.515625 L 37 -13.3125 L 35.125 0 L 36.0625 0 C 39.65625 0 42.109375 -0.09375 43.421875 -0.28125 C 45.6875 -0.65625 47.296875 -1.421875 48.046875 -2.640625 C 48.625 -3.59375 49.09375 -4.90625 49.46875 -6.609375 C 49.65625 -7.734375 50.03125 -10 50.40625 -13.3125 L 53.25 -33.515625 C 53.8125 -37.109375 54.09375 -39.5625 54.09375 -40.6875 L 54.09375 -41.640625 C 54.09375 -43.328125 53.8125 -44.46875 53.25 -45.125 C 52.578125 -45.875 51.359375 -46.453125 49.5625 -46.640625 C 48.4375 -46.828125 46.359375 -46.828125 43.328125 -46.828125 L 20.953125 -46.828125 L 21.8125 -52.765625 C 22.46875 -56.640625 22.84375 -59.1875 22.84375 -60.421875 C 22.9375 -60.796875 22.9375 -61.078125 22.9375 -61.265625 C 22.9375 -62.6875 22.65625 -63.71875 22.09375 -64.390625 C 21.71875 -64.953125 20.953125 -65.421875 19.828125 -65.609375 C 18.96875 -65.890625 17.75 -66.078125 16.140625 -66.078125 Z M 6.421875 -66.078125 "/></g></g></g><g fill="#ee3ec9" fill-opacity="1"><g transform="translate(86.516814, 179.141609)"><g><path d="M 43.046875 -46.828125 L 6.515625 -46.828125 L 6.515625 -45.21875 C 6.515625 -42.765625 6.609375 -40.875 6.609375 -39.75 C 6.796875 -37.671875 7.171875 -36.25 7.734375 -35.40625 C 8.40625 -34.546875 9.53125 -33.984375 11.234375 -33.703125 C 12.375 -33.609375 14.734375 -33.515625 18.125 -33.515625 L 38.890625 -33.515625 C 38.796875 -32.46875 38.703125 -31.8125 38.609375 -31.4375 C 38.609375 -31.0625 38.515625 -30.78125 38.328125 -30.59375 C 38.140625 -30.40625 37.859375 -30.203125 37.484375 -30.109375 C 37.296875 -30.109375 36.71875 -30.015625 35.96875 -30.015625 L 16.234375 -30.015625 C 12.75 -30.015625 10.296875 -29.921875 8.96875 -29.734375 C 7.359375 -29.546875 6.140625 -28.984375 5.28125 -28.140625 C 4.53125 -27.375 3.875 -25.875 3.40625 -23.609375 C 3.203125 -22.46875 2.828125 -20.203125 2.359375 -16.796875 L 1.796875 -13.3125 C 1.328125 -9.53125 1.03125 -6.984375 0.9375 -5.671875 L 0.9375 -5.09375 C 0.9375 -3.59375 1.140625 -2.546875 1.703125 -1.796875 C 2.265625 -1.140625 3.203125 -0.65625 4.53125 -0.375 C 5.859375 -0.1875 8.78125 0 13.3125 0 L 33.796875 0 C 38.515625 0 41.53125 -0.1875 42.859375 -0.375 C 44.1875 -0.65625 45.21875 -1.03125 45.96875 -1.609375 C 46.828125 -2.265625 47.484375 -3.296875 47.859375 -4.625 C 48.34375 -5.953125 48.90625 -8.78125 49.46875 -13.3125 L 50.796875 -22.9375 L 52.296875 -33.515625 C 52.765625 -36.90625 53.0625 -39.171875 53.0625 -40.3125 C 53.15625 -40.875 53.15625 -41.25 53.15625 -41.640625 C 53.15625 -43.609375 52.671875 -44.9375 51.734375 -45.59375 C 51.171875 -46.0625 50.21875 -46.359375 48.90625 -46.546875 C 47.765625 -46.734375 45.78125 -46.828125 43.046875 -46.828125 Z M 17.9375 -16.796875 L 36.53125 -16.796875 C 36.4375 -15.765625 36.34375 -15.109375 36.25 -14.734375 C 36.15625 -14.34375 36.0625 -13.96875 35.875 -13.78125 C 35.78125 -13.59375 35.59375 -13.5 35.21875 -13.40625 C 35.03125 -13.40625 34.453125 -13.3125 33.703125 -13.3125 L 15.203125 -13.3125 C 15.390625 -14.0625 15.484375 -14.640625 15.484375 -14.921875 C 15.578125 -15.671875 15.671875 -16.140625 15.859375 -16.328125 C 16.046875 -16.515625 16.234375 -16.703125 16.515625 -16.703125 C 16.703125 -16.796875 17.1875 -16.796875 17.9375 -16.796875 Z M 17.9375 -16.796875 "/></g></g></g><g fill="#ee3ec9" fill-opacity="1"><g transform="translate(140.51334, 179.141609)"><g><path d="M 18.6875 -46.734375 C 15.296875 -46.734375 12.9375 -46.640625 11.609375 -46.453125 C 9.90625 -46.265625 8.6875 -45.78125 7.828125 -45.03125 C 6.984375 -44.28125 6.328125 -42.859375 5.859375 -40.875 C 5.671875 -39.65625 5.28125 -37.203125 4.71875 -33.421875 C 4.4375 -31.15625 3.96875 -27.84375 3.296875 -23.3125 C 2.734375 -18.78125 2.265625 -15.484375 1.890625 -13.21875 C 1.328125 -9.53125 1.03125 -7.078125 0.9375 -5.765625 L 0.9375 -5.09375 C 0.9375 -3.78125 1.234375 -2.734375 1.609375 -1.984375 C 2.171875 -1.234375 3.109375 -0.65625 4.4375 -0.375 C 5.765625 -0.1875 8.6875 0 13.21875 0 L 34.359375 0 C 38.234375 0 40.78125 -0.09375 42.015625 -0.1875 C 43.90625 -0.375 45.3125 -0.84375 46.171875 -1.515625 C 47.109375 -2.265625 47.765625 -3.59375 48.140625 -5.28125 C 48.53125 -6.609375 48.90625 -9.25 49.46875 -13.21875 L 15.296875 -13.21875 L 17.65625 -30.015625 C 17.84375 -30.96875 17.9375 -31.53125 17.9375 -31.90625 C 18.125 -32.46875 18.3125 -32.859375 18.5 -33.046875 C 18.6875 -33.234375 18.96875 -33.328125 19.359375 -33.328125 C 19.546875 -33.421875 20.015625 -33.515625 20.578125 -33.515625 C 20.953125 -33.515625 21.4375 -33.421875 22 -33.421875 L 38.890625 -33.421875 C 42.484375 -33.515625 44.84375 -33.609375 46.0625 -33.609375 C 48.34375 -33.796875 50.03125 -34.359375 50.984375 -35.21875 C 51.828125 -35.96875 52.484375 -37.296875 52.875 -39.078125 C 53.25 -40.40625 53.625 -42.953125 54.1875 -46.734375 Z M 18.6875 -46.734375 "/></g></g></g><g fill="#ee3ec9" fill-opacity="1"><g transform="translate(194.13228, 179.141609)"><g><path d="M 10 -66.078125 L 8.21875 -52.875 L 7.359375 -46.828125 L 5.46875 -33.515625 L 5 -30.015625 L 3.109375 -16.796875 L 2.640625 -13.3125 L 1.703125 -6.796875 C 1.609375 -5.953125 1.515625 -5.375 1.515625 -5 C 1.421875 -4.53125 1.234375 -4.15625 1.03125 -3.78125 C 0.84375 -3.296875 0.46875 -2.828125 -0.09375 -2.265625 C -0.46875 -1.890625 -1.328125 -1.140625 -2.828125 0 L 1.234375 0 C 6.140625 0 9.25 -0.1875 10.578125 -0.5625 C 11.890625 -0.9375 12.84375 -1.609375 13.5 -2.546875 C 14.15625 -3.5 14.640625 -4.90625 15.015625 -6.890625 C 15.296875 -8.03125 15.671875 -10.203125 16.046875 -13.3125 L 16.515625 -16.796875 L 37.296875 -16.796875 L 36.8125 -13.3125 L 34.9375 0 C 39.65625 0 42.578125 -0.1875 43.90625 -0.375 C 45.40625 -0.75 46.453125 -1.234375 47.203125 -1.984375 C 47.953125 -2.734375 48.625 -4.0625 49 -5.765625 C 49.375 -7.078125 49.75 -9.53125 50.21875 -13.3125 L 50.703125 -16.796875 C 50.796875 -17.28125 50.890625 -17.75 50.890625 -18.21875 C 50.890625 -18.5 50.796875 -18.78125 50.796875 -19.0625 C 50.796875 -19.828125 50.609375 -20.390625 50.40625 -20.859375 C 50.21875 -21.53125 49.84375 -22.09375 49.375 -22.46875 C 48.90625 -22.9375 48.234375 -23.3125 47.484375 -23.5 C 48.34375 -23.796875 49 -24.078125 49.5625 -24.453125 C 50.125 -24.828125 50.5 -25.203125 50.890625 -25.671875 C 51.265625 -26.25 51.640625 -26.8125 51.828125 -27.46875 C 52.203125 -28.234375 52.390625 -29.078125 52.578125 -30.015625 L 54.9375 -46.828125 L 54.75 -46.828125 C 50.125 -46.828125 47.109375 -46.734375 45.78125 -46.453125 C 44.1875 -46.171875 42.953125 -45.5 42.203125 -44.46875 C 41.640625 -43.609375 41.0625 -42.203125 40.6875 -40.3125 C 40.5 -39.171875 40.125 -36.90625 39.65625 -33.609375 L 39.171875 -30.015625 L 18.40625 -30.015625 L 18.875 -33.515625 L 20.765625 -46.828125 L 21.625 -52.765625 C 22 -55.890625 22.28125 -57.96875 22.375 -59.09375 C 22.46875 -59.859375 22.46875 -60.421875 22.46875 -60.984375 C 22.46875 -62.3125 22.28125 -63.25 21.90625 -63.90625 C 21.4375 -64.953125 20.296875 -65.609375 18.5 -65.796875 C 17.28125 -65.984375 14.4375 -66.078125 10 -66.078125 Z M 10 -66.078125 "/></g></g></g><g fill="#ee3ec9" fill-opacity="1"><g transform="translate(248.506407, 179.141609)"><g/></g></g><g fill="#ee3ec9" fill-opacity="1"><g transform="translate(276.826266, 179.141609)"><g><path d="M 43.046875 -46.828125 L 6.515625 -46.828125 L 6.515625 -45.21875 C 6.515625 -42.765625 6.609375 -40.875 6.609375 -39.75 C 6.796875 -37.671875 7.171875 -36.25 7.734375 -35.40625 C 8.40625 -34.546875 9.53125 -33.984375 11.234375 -33.703125 C 12.375 -33.609375 14.734375 -33.515625 18.125 -33.515625 L 38.890625 -33.515625 C 38.796875 -32.46875 38.703125 -31.8125 38.609375 -31.4375 C 38.609375 -31.0625 38.515625 -30.78125 38.328125 -30.59375 C 38.140625 -30.40625 37.859375 -30.203125 37.484375 -30.109375 C 37.296875 -30.109375 36.71875 -30.015625 35.96875 -30.015625 L 16.234375 -30.015625 C 12.75 -30.015625 10.296875 -29.921875 8.96875 -29.734375 C 7.359375 -29.546875 6.140625 -28.984375 5.28125 -28.140625 C 4.53125 -27.375 3.875 -25.875 3.40625 -23.609375 C 3.203125 -22.46875 2.828125 -20.203125 2.359375 -16.796875 L 1.796875 -13.3125 C 1.328125 -9.53125 1.03125 -6.984375 0.9375 -5.671875 L 0.9375 -5.09375 C 0.9375 -3.59375 1.140625 -2.546875 1.703125 -1.796875 C 2.265625 -1.140625 3.203125 -0.65625 4.53125 -0.375 C 5.859375 -0.1875 8.78125 0 13.3125 0 L 33.796875 0 C 38.515625 0 41.53125 -0.1875 42.859375 -0.375 C 44.1875 -0.65625 45.21875 -1.03125 45.96875 -1.609375 C 46.828125 -2.265625 47.484375 -3.296875 47.859375 -4.625 C 48.34375 -5.953125 48.90625 -8.78125 49.46875 -13.3125 L 50.796875 -22.9375 L 52.296875 -33.515625 C 52.765625 -36.90625 53.0625 -39.171875 53.0625 -40.3125 C 53.15625 -40.875 53.15625 -41.25 53.15625 -41.640625 C 53.15625 -43.609375 52.671875 -44.9375 51.734375 -45.59375 C 51.171875 -46.0625 50.21875 -46.359375 48.90625 -46.546875 C 47.765625 -46.734375 45.78125 -46.828125 43.046875 -46.828125 Z M 17.9375 -16.796875 L 36.53125 -16.796875 C 36.4375 -15.765625 36.34375 -15.109375 36.25 -14.734375 C 36.15625 -14.34375 36.0625 -13.96875 35.875 -13.78125 C 35.78125 -13.59375 35.59375 -13.5 35.21875 -13.40625 C 35.03125 -13.40625 34.453125 -13.3125 33.703125 -13.3125 L 15.203125 -13.3125 C 15.390625 -14.0625 15.484375 -14.640625 15.484375 -14.921875 C 15.578125 -15.671875 15.671875 -16.140625 15.859375 -16.328125 C 16.046875 -16.515625 16.234375 -16.703125 16.515625 -16.703125 C 16.703125 -16.796875 17.1875 -16.796875 17.9375 -16.796875 Z M 17.9375 -16.796875 "/></g></g></g><g fill="#ff00ff" fill-opacity="1"><g transform="translate(91.658545, 249.941286)"><g><path d="M 48.4375 19.359375 C 47.671875 18.3125 47.203125 17.65625 46.828125 17.28125 C 46.453125 16.703125 46.0625 16.234375 45.875 15.859375 C 45.6875 15.390625 45.59375 14.921875 45.59375 14.34375 C 45.59375 14.15625 45.6875 13.78125 45.6875 13.3125 L 49.46875 -13.3125 L 52.296875 -33.515625 C 52.875 -37.671875 53.15625 -40.40625 53.15625 -41.640625 C 53.15625 -42.765625 53.0625 -43.703125 52.765625 -44.28125 C 52.296875 -45.40625 51.171875 -46.171875 49.375 -46.453125 C 48.046875 -46.640625 45.21875 -46.734375 40.6875 -46.734375 L 19.921875 -46.734375 C 16.140625 -46.734375 13.59375 -46.734375 12.265625 -46.546875 C 10.296875 -46.359375 8.78125 -45.875 7.828125 -45.03125 C 7.171875 -44.46875 6.609375 -43.421875 6.234375 -42.109375 C 5.859375 -40.78125 5.28125 -37.953125 4.625 -33.515625 L 1.796875 -13.3125 C 1.421875 -9.90625 1.140625 -7.546875 0.9375 -6.328125 L 0.9375 -5.09375 C 0.9375 -3.59375 1.234375 -2.546875 1.796875 -1.796875 C 2.453125 -0.9375 3.78125 -0.375 5.859375 -0.1875 C 7.078125 -0.09375 9.15625 0 12.078125 0 L 34.171875 0 C 33.703125 3.5 33.328125 5.953125 33.140625 7.453125 C 32.953125 9.4375 32.859375 11.046875 32.859375 12.265625 C 32.859375 14.640625 33.328125 16.328125 34.265625 17.28125 C 34.9375 17.9375 35.96875 18.40625 37.296875 18.78125 C 38.234375 18.96875 39.46875 19.0625 40.78125 19.171875 C 42.109375 19.265625 44.09375 19.359375 46.828125 19.359375 Z M 35.96875 -13.3125 L 16.609375 -13.3125 C 16.140625 -13.40625 15.765625 -13.59375 15.578125 -13.78125 C 15.578125 -13.96875 15.484375 -14.25 15.484375 -14.53125 C 15.484375 -14.921875 15.578125 -15.578125 15.671875 -16.609375 L 18.03125 -33.515625 L 35.5 -33.515625 C 36.625 -33.515625 37.390625 -33.515625 37.671875 -33.421875 C 38.046875 -33.328125 38.328125 -33.140625 38.421875 -32.859375 C 38.609375 -32.671875 38.609375 -32.46875 38.609375 -32.09375 C 38.609375 -31.8125 38.515625 -31.15625 38.328125 -30.015625 Z M 35.96875 -13.3125 "/></g></g></g><g fill="#ff00ff" fill-opacity="1"><g transform="translate(145.655071, 249.941286)"><g><path d="M 2.921875 -46.734375 C 3.96875 -45.96875 4.625 -45.40625 4.90625 -45.03125 C 5.375 -44.65625 5.671875 -44.28125 5.765625 -43.90625 C 5.859375 -43.609375 5.953125 -43.328125 5.953125 -42.859375 L 5.953125 -42.390625 C 5.953125 -42.203125 5.859375 -41.734375 5.765625 -41.0625 L 4.71875 -33.515625 C 4.53125 -31.71875 4.15625 -28.515625 3.40625 -23.890625 C 2.734375 -19.359375 2.265625 -15.765625 1.890625 -13.3125 C 1.421875 -10.09375 1.140625 -7.9375 1.03125 -6.703125 C 1.03125 -6.140625 0.9375 -5.5625 0.9375 -5 C 0.9375 -3.875 1.140625 -3.015625 1.421875 -2.359375 C 1.890625 -1.421875 2.828125 -0.75 4.34375 -0.375 C 5.671875 -0.1875 7.9375 0 11.328125 0 L 36.25 0 C 39.46875 0 41.734375 -0.09375 42.953125 -0.28125 C 44.65625 -0.65625 45.875 -1.234375 46.640625 -2.078125 C 47.390625 -2.828125 47.859375 -4.0625 48.234375 -5.765625 C 48.625 -7.078125 49 -9.53125 49.46875 -13.3125 L 52.296875 -33.515625 C 52.765625 -36.625 53.0625 -38.703125 53.0625 -39.84375 C 53.15625 -40.5 53.15625 -41.0625 53.15625 -41.53125 C 53.15625 -42.953125 52.96875 -44 52.578125 -44.65625 C 52.015625 -45.6875 50.703125 -46.359375 48.625 -46.546875 C 47.484375 -46.734375 44.84375 -46.734375 40.78125 -46.734375 L 38.890625 -33.515625 L 36.0625 -13.3125 L 18.59375 -13.3125 C 17.375 -13.3125 16.609375 -13.3125 16.234375 -13.40625 C 15.859375 -13.5 15.671875 -13.6875 15.578125 -13.96875 C 15.578125 -14.25 15.484375 -14.53125 15.484375 -14.921875 C 15.578125 -15.296875 15.671875 -15.859375 15.765625 -16.609375 L 18.125 -33.515625 C 18.59375 -36.4375 18.875 -38.234375 18.875 -38.890625 C 19.0625 -40.3125 19.171875 -41.34375 19.171875 -42.109375 C 19.171875 -43.796875 18.78125 -44.9375 17.9375 -45.5 C 17.28125 -46.0625 16.046875 -46.453125 14.34375 -46.546875 C 13.59375 -46.734375 12.46875 -46.734375 11.140625 -46.734375 Z M 2.921875 -46.734375 "/></g></g></g><g fill="#ff00ff" fill-opacity="1"><g transform="translate(199.651597, 249.941286)"><g><path d="M 23.609375 -66.078125 C 19.265625 -66.078125 16.328125 -65.984375 14.921875 -65.796875 C 13.21875 -65.515625 11.984375 -64.859375 11.140625 -63.90625 C 10.484375 -63.15625 9.90625 -61.734375 9.53125 -59.859375 C 9.25 -58.71875 8.875 -56.359375 8.3125 -52.765625 L 8.03125 -50.21875 L 21.4375 -50.21875 Z M 7.546875 -46.828125 L 1.890625 -6.890625 C 1.796875 -5.953125 1.703125 -5.375 1.515625 -5 C 1.421875 -4.53125 1.234375 -4.0625 0.84375 -3.59375 C 0.5625 -3.203125 0.09375 -2.734375 -0.65625 -1.984375 C -1.03125 -1.609375 -1.703125 -0.9375 -2.828125 0 L 1.609375 0 C 5 0 7.359375 -0.09375 8.59375 -0.1875 C 10.671875 -0.375 12.171875 -0.9375 13.125 -1.796875 C 13.96875 -2.640625 14.640625 -4.0625 15.015625 -6.046875 C 15.390625 -7.265625 15.765625 -9.625 16.234375 -13.21875 L 20.953125 -46.828125 Z M 7.546875 -46.828125 "/></g></g></g><g fill="#ff00ff" fill-opacity="1"><g transform="translate(221.363485, 249.941286)"><g><path d="M 6.515625 -46.734375 C 5.953125 -42.953125 5.5625 -40.40625 5.46875 -39.078125 L 5.46875 -38.328125 C 5.46875 -37.203125 5.671875 -36.34375 5.953125 -35.6875 C 6.515625 -34.734375 7.734375 -34.078125 9.53125 -33.796875 C 10.859375 -33.609375 13.6875 -33.515625 18.03125 -33.515625 L 35.3125 -33.515625 C 36.4375 -33.515625 37.109375 -33.515625 37.390625 -33.421875 C 37.859375 -33.421875 38.140625 -33.234375 38.328125 -33.046875 C 38.515625 -32.953125 38.609375 -32.5625 38.609375 -32.09375 L 38.609375 -31.53125 C 38.609375 -31.25 38.515625 -30.78125 38.328125 -30.015625 L 16.046875 -30.015625 C 12.265625 -30.015625 9.625 -29.921875 8.3125 -29.546875 C 7.078125 -29.359375 6.140625 -28.890625 5.375 -28.234375 C 4.4375 -27.375 3.78125 -25.765625 3.296875 -23.3125 C 3.109375 -22.1875 2.734375 -20.015625 2.265625 -16.703125 L 1.796875 -13.21875 C 1.421875 -9.90625 1.140625 -7.640625 1.03125 -6.421875 C 1.03125 -6.046875 0.9375 -5.5625 0.9375 -5.09375 C 0.9375 -3.78125 1.140625 -2.828125 1.515625 -2.078125 C 2.078125 -1.140625 3.296875 -0.5625 5.1875 -0.28125 C 6.515625 -0.09375 9.25 0 13.40625 0 L 34.171875 0 C 39.171875 0 42.390625 -0.1875 43.703125 -0.46875 C 45.21875 -0.84375 46.359375 -1.609375 47.015625 -2.734375 C 47.578125 -3.6875 48.140625 -5.09375 48.53125 -7.078125 C 48.71875 -8.21875 49.09375 -10.203125 49.46875 -13.21875 L 18.21875 -13.21875 C 17.28125 -13.3125 16.703125 -13.3125 16.328125 -13.3125 C 15.953125 -13.40625 15.765625 -13.5 15.578125 -13.6875 C 15.484375 -13.96875 15.484375 -14.34375 15.484375 -14.921875 C 15.484375 -15.296875 15.578125 -15.859375 15.671875 -16.703125 L 37.765625 -16.703125 C 41.25 -16.703125 43.609375 -16.796875 44.84375 -17 C 46.734375 -17.28125 48.140625 -17.84375 48.90625 -18.78125 C 49.65625 -19.640625 50.21875 -20.953125 50.609375 -22.65625 C 50.890625 -23.984375 51.265625 -26.4375 51.828125 -30.015625 L 52.296875 -33.515625 C 52.765625 -37.203125 53.0625 -39.65625 53.0625 -40.875 L 53.0625 -41.53125 C 53.0625 -43.421875 52.671875 -44.65625 51.921875 -45.40625 C 51.359375 -45.96875 50.3125 -46.359375 48.8125 -46.546875 C 47.671875 -46.734375 45.59375 -46.734375 42.765625 -46.734375 Z M 6.515625 -46.734375 "/></g></g></g><g fill="#00ffff" fill-opacity="1"><g transform="translate(86.938566, 249.941286)"><g><path d="M 48.4375 19.359375 C 47.671875 18.3125 47.203125 17.65625 46.828125 17.28125 C 46.453125 16.703125 46.0625 16.234375 45.875 15.859375 C 45.6875 15.390625 45.59375 14.921875 45.59375 14.34375 C 45.59375 14.15625 45.6875 13.78125 45.6875 13.3125 L 49.46875 -13.3125 L 52.296875 -33.515625 C 52.875 -37.671875 53.15625 -40.40625 53.15625 -41.640625 C 53.15625 -42.765625 53.0625 -43.703125 52.765625 -44.28125 C 52.296875 -45.40625 51.171875 -46.171875 49.375 -46.453125 C 48.046875 -46.640625 45.21875 -46.734375 40.6875 -46.734375 L 19.921875 -46.734375 C 16.140625 -46.734375 13.59375 -46.734375 12.265625 -46.546875 C 10.296875 -46.359375 8.78125 -45.875 7.828125 -45.03125 C 7.171875 -44.46875 6.609375 -43.421875 6.234375 -42.109375 C 5.859375 -40.78125 5.28125 -37.953125 4.625 -33.515625 L 1.796875 -13.3125 C 1.421875 -9.90625 1.140625 -7.546875 0.9375 -6.328125 L 0.9375 -5.09375 C 0.9375 -3.59375 1.234375 -2.546875 1.796875 -1.796875 C 2.453125 -0.9375 3.78125 -0.375 5.859375 -0.1875 C 7.078125 -0.09375 9.15625 0 12.078125 0 L 34.171875 0 C 33.703125 3.5 33.328125 5.953125 33.140625 7.453125 C 32.953125 9.4375 32.859375 11.046875 32.859375 12.265625 C 32.859375 14.640625 33.328125 16.328125 34.265625 17.28125 C 34.9375 17.9375 35.96875 18.40625 37.296875 18.78125 C 38.234375 18.96875 39.46875 19.0625 40.78125 19.171875 C 42.109375 19.265625 44.09375 19.359375 46.828125 19.359375 Z M 35.96875 -13.3125 L 16.609375 -13.3125 C 16.140625 -13.40625 15.765625 -13.59375 15.578125 -13.78125 C 15.578125 -13.96875 15.484375 -14.25 15.484375 -14.53125 C 15.484375 -14.921875 15.578125 -15.578125 15.671875 -16.609375 L 18.03125 -33.515625 L 35.5 -33.515625 C 36.625 -33.515625 37.390625 -33.515625 37.671875 -33.421875 C 38.046875 -33.328125 38.328125 -33.140625 38.421875 -32.859375 C 38.609375 -32.671875 38.609375 -32.46875 38.609375 -32.09375 C 38.609375 -31.8125 38.515625 -31.15625 38.328125 -30.015625 Z M 35.96875 -13.3125 "/></g></g></g><g fill="#00ffff" fill-opacity="1"><g transform="translate(140.935092, 249.941286)"><g><path d="M 2.921875 -46.734375 C 3.96875 -45.96875 4.625 -45.40625 4.90625 -45.03125 C 5.375 -44.65625 5.671875 -44.28125 5.765625 -43.90625 C 5.859375 -43.609375 5.953125 -43.328125 5.953125 -42.859375 L 5.953125 -42.390625 C 5.953125 -42.203125 5.859375 -41.734375 5.765625 -41.0625 L 4.71875 -33.515625 C 4.53125 -31.71875 4.15625 -28.515625 3.40625 -23.890625 C 2.734375 -19.359375 2.265625 -15.765625 1.890625 -13.3125 C 1.421875 -10.09375 1.140625 -7.9375 1.03125 -6.703125 C 1.03125 -6.140625 0.9375 -5.5625 0.9375 -5 C 0.9375 -3.875 1.140625 -3.015625 1.421875 -2.359375 C 1.890625 -1.421875 2.828125 -0.75 4.34375 -0.375 C 5.671875 -0.1875 7.9375 0 11.328125 0 L 36.25 0 C 39.46875 0 41.734375 -0.09375 42.953125 -0.28125 C 44.65625 -0.65625 45.875 -1.234375 46.640625 -2.078125 C 47.390625 -2.828125 47.859375 -4.0625 48.234375 -5.765625 C 48.625 -7.078125 49 -9.53125 49.46875 -13.3125 L 52.296875 -33.515625 C 52.765625 -36.625 53.0625 -38.703125 53.0625 -39.84375 C 53.15625 -40.5 53.15625 -41.0625 53.15625 -41.53125 C 53.15625 -42.953125 52.96875 -44 52.578125 -44.65625 C 52.015625 -45.6875 50.703125 -46.359375 48.625 -46.546875 C 47.484375 -46.734375 44.84375 -46.734375 40.78125 -46.734375 L 38.890625 -33.515625 L 36.0625 -13.3125 L 18.59375 -13.3125 C 17.375 -13.3125 16.609375 -13.3125 16.234375 -13.40625 C 15.859375 -13.5 15.671875 -13.6875 15.578125 -13.96875 C 15.578125 -14.25 15.484375 -14.53125 15.484375 -14.921875 C 15.578125 -15.296875 15.671875 -15.859375 15.765625 -16.609375 L 18.125 -33.515625 C 18.59375 -36.4375 18.875 -38.234375 18.875 -38.890625 C 19.0625 -40.3125 19.171875 -41.34375 19.171875 -42.109375 C 19.171875 -43.796875 18.78125 -44.9375 17.9375 -45.5 C 17.28125 -46.0625 16.046875 -46.453125 14.34375 -46.546875 C 13.59375 -46.734375 12.46875 -46.734375 11.140625 -46.734375 Z M 2.921875 -46.734375 "/></g></g></g><g fill="#00ffff" fill-opacity="1"><g transform="translate(194.931619, 249.941286)"><g><path d="M 23.609375 -66.078125 C 19.265625 -66.078125 16.328125 -65.984375 14.921875 -65.796875 C 13.21875 -65.515625 11.984375 -64.859375 11.140625 -63.90625 C 10.484375 -63.15625 9.90625 -61.734375 9.53125 -59.859375 C 9.25 -58.71875 8.875 -56.359375 8.3125 -52.765625 L 8.03125 -50.21875 L 21.4375 -50.21875 Z M 7.546875 -46.828125 L 1.890625 -6.890625 C 1.796875 -5.953125 1.703125 -5.375 1.515625 -5 C 1.421875 -4.53125 1.234375 -4.0625 0.84375 -3.59375 C 0.5625 -3.203125 0.09375 -2.734375 -0.65625 -1.984375 C -1.03125 -1.609375 -1.703125 -0.9375 -2.828125 0 L 1.609375 0 C 5 0 7.359375 -0.09375 8.59375 -0.1875 C 10.671875 -0.375 12.171875 -0.9375 13.125 -1.796875 C 13.96875 -2.640625 14.640625 -4.0625 15.015625 -6.046875 C 15.390625 -7.265625 15.765625 -9.625 16.234375 -13.21875 L 20.953125 -46.828125 Z M 7.546875 -46.828125 "/></g></g></g><g fill="#00ffff" fill-opacity="1"><g transform="translate(216.643506, 249.941286)"><g><path d="M 6.515625 -46.734375 C 5.953125 -42.953125 5.5625 -40.40625 5.46875 -39.078125 L 5.46875 -38.328125 C 5.46875 -37.203125 5.671875 -36.34375 5.953125 -35.6875 C 6.515625 -34.734375 7.734375 -34.078125 9.53125 -33.796875 C 10.859375 -33.609375 13.6875 -33.515625 18.03125 -33.515625 L 35.3125 -33.515625 C 36.4375 -33.515625 37.109375 -33.515625 37.390625 -33.421875 C 37.859375 -33.421875 38.140625 -33.234375 38.328125 -33.046875 C 38.515625 -32.953125 38.609375 -32.5625 38.609375 -32.09375 L 38.609375 -31.53125 C 38.609375 -31.25 38.515625 -30.78125 38.328125 -30.015625 L 16.046875 -30.015625 C 12.265625 -30.015625 9.625 -29.921875 8.3125 -29.546875 C 7.078125 -29.359375 6.140625 -28.890625 5.375 -28.234375 C 4.4375 -27.375 3.78125 -25.765625 3.296875 -23.3125 C 3.109375 -22.1875 2.734375 -20.015625 2.265625 -16.703125 L 1.796875 -13.21875 C 1.421875 -9.90625 1.140625 -7.640625 1.03125 -6.421875 C 1.03125 -6.046875 0.9375 -5.5625 0.9375 -5.09375 C 0.9375 -3.78125 1.140625 -2.828125 1.515625 -2.078125 C 2.078125 -1.140625 3.296875 -0.5625 5.1875 -0.28125 C 6.515625 -0.09375 9.25 0 13.40625 0 L 34.171875 0 C 39.171875 0 42.390625 -0.1875 43.703125 -0.46875 C 45.21875 -0.84375 46.359375 -1.609375 47.015625 -2.734375 C 47.578125 -3.6875 48.140625 -5.09375 48.53125 -7.078125 C 48.71875 -8.21875 49.09375 -10.203125 49.46875 -13.21875 L 18.21875 -13.21875 C 17.28125 -13.3125 16.703125 -13.3125 16.328125 -13.3125 C 15.953125 -13.40625 15.765625 -13.5 15.578125 -13.6875 C 15.484375 -13.96875 15.484375 -14.34375 15.484375 -14.921875 C 15.484375 -15.296875 15.578125 -15.859375 15.671875 -16.703125 L 37.765625 -16.703125 C 41.25 -16.703125 43.609375 -16.796875 44.84375 -17 C 46.734375 -17.28125 48.140625 -17.84375 48.90625 -18.78125 C 49.65625 -19.640625 50.21875 -20.953125 50.609375 -22.65625 C 50.890625 -23.984375 51.265625 -26.4375 51.828125 -30.015625 L 52.296875 -33.515625 C 52.765625 -37.203125 53.0625 -39.65625 53.0625 -40.875 L 53.0625 -41.53125 C 53.0625 -43.421875 52.671875 -44.65625 51.921875 -45.40625 C 51.359375 -45.96875 50.3125 -46.359375 48.8125 -46.546875 C 47.671875 -46.734375 45.59375 -46.734375 42.765625 -46.734375 Z M 6.515625 -46.734375 "/></g></g></g><g fill="#ee3ec9" fill-opacity="1"><g transform="translate(89.298555, 249.941286)"><g><path d="M 48.4375 19.359375 C 47.671875 18.3125 47.203125 17.65625 46.828125 17.28125 C 46.453125 16.703125 46.0625 16.234375 45.875 15.859375 C 45.6875 15.390625 45.59375 14.921875 45.59375 14.34375 C 45.59375 14.15625 45.6875 13.78125 45.6875 13.3125 L 49.46875 -13.3125 L 52.296875 -33.515625 C 52.875 -37.671875 53.15625 -40.40625 53.15625 -41.640625 C 53.15625 -42.765625 53.0625 -43.703125 52.765625 -44.28125 C 52.296875 -45.40625 51.171875 -46.171875 49.375 -46.453125 C 48.046875 -46.640625 45.21875 -46.734375 40.6875 -46.734375 L 19.921875 -46.734375 C 16.140625 -46.734375 13.59375 -46.734375 12.265625 -46.546875 C 10.296875 -46.359375 8.78125 -45.875 7.828125 -45.03125 C 7.171875 -44.46875 6.609375 -43.421875 6.234375 -42.109375 C 5.859375 -40.78125 5.28125 -37.953125 4.625 -33.515625 L 1.796875 -13.3125 C 1.421875 -9.90625 1.140625 -7.546875 0.9375 -6.328125 L 0.9375 -5.09375 C 0.9375 -3.59375 1.234375 -2.546875 1.796875 -1.796875 C 2.453125 -0.9375 3.78125 -0.375 5.859375 -0.1875 C 7.078125 -0.09375 9.15625 0 12.078125 0 L 34.171875 0 C 33.703125 3.5 33.328125 5.953125 33.140625 7.453125 C 32.953125 9.4375 32.859375 11.046875 32.859375 12.265625 C 32.859375 14.640625 33.328125 16.328125 34.265625 17.28125 C 34.9375 17.9375 35.96875 18.40625 37.296875 18.78125 C 38.234375 18.96875 39.46875 19.0625 40.78125 19.171875 C 42.109375 19.265625 44.09375 19.359375 46.828125 19.359375 Z M 35.96875 -13.3125 L 16.609375 -13.3125 C 16.140625 -13.40625 15.765625 -13.59375 15.578125 -13.78125 C 15.578125 -13.96875 15.484375 -14.25 15.484375 -14.53125 C 15.484375 -14.921875 15.578125 -15.578125 15.671875 -16.609375 L 18.03125 -33.515625 L 35.5 -33.515625 C 36.625 -33.515625 37.390625 -33.515625 37.671875 -33.421875 C 38.046875 -33.328125 38.328125 -33.140625 38.421875 -32.859375 C 38.609375 -32.671875 38.609375 -32.46875 38.609375 -32.09375 C 38.609375 -31.8125 38.515625 -31.15625 38.328125 -30.015625 Z M 35.96875 -13.3125 "/></g></g></g><g fill="#ee3ec9" fill-opacity="1"><g transform="translate(143.295082, 249.941286)"><g><path d="M 2.921875 -46.734375 C 3.96875 -45.96875 4.625 -45.40625 4.90625 -45.03125 C 5.375 -44.65625 5.671875 -44.28125 5.765625 -43.90625 C 5.859375 -43.609375 5.953125 -43.328125 5.953125 -42.859375 L 5.953125 -42.390625 C 5.953125 -42.203125 5.859375 -41.734375 5.765625 -41.0625 L 4.71875 -33.515625 C 4.53125 -31.71875 4.15625 -28.515625 3.40625 -23.890625 C 2.734375 -19.359375 2.265625 -15.765625 1.890625 -13.3125 C 1.421875 -10.09375 1.140625 -7.9375 1.03125 -6.703125 C 1.03125 -6.140625 0.9375 -5.5625 0.9375 -5 C 0.9375 -3.875 1.140625 -3.015625 1.421875 -2.359375 C 1.890625 -1.421875 2.828125 -0.75 4.34375 -0.375 C 5.671875 -0.1875 7.9375 0 11.328125 0 L 36.25 0 C 39.46875 0 41.734375 -0.09375 42.953125 -0.28125 C 44.65625 -0.65625 45.875 -1.234375 46.640625 -2.078125 C 47.390625 -2.828125 47.859375 -4.0625 48.234375 -5.765625 C 48.625 -7.078125 49 -9.53125 49.46875 -13.3125 L 52.296875 -33.515625 C 52.765625 -36.625 53.0625 -38.703125 53.0625 -39.84375 C 53.15625 -40.5 53.15625 -41.0625 53.15625 -41.53125 C 53.15625 -42.953125 52.96875 -44 52.578125 -44.65625 C 52.015625 -45.6875 50.703125 -46.359375 48.625 -46.546875 C 47.484375 -46.734375 44.84375 -46.734375 40.78125 -46.734375 L 38.890625 -33.515625 L 36.0625 -13.3125 L 18.59375 -13.3125 C 17.375 -13.3125 16.609375 -13.3125 16.234375 -13.40625 C 15.859375 -13.5 15.671875 -13.6875 15.578125 -13.96875 C 15.578125 -14.25 15.484375 -14.53125 15.484375 -14.921875 C 15.578125 -15.296875 15.671875 -15.859375 15.765625 -16.609375 L 18.125 -33.515625 C 18.59375 -36.4375 18.875 -38.234375 18.875 -38.890625 C 19.0625 -40.3125 19.171875 -41.34375 19.171875 -42.109375 C 19.171875 -43.796875 18.78125 -44.9375 17.9375 -45.5 C 17.28125 -46.0625 16.046875 -46.453125 14.34375 -46.546875 C 13.59375 -46.734375 12.46875 -46.734375 11.140625 -46.734375 Z M 2.921875 -46.734375 "/></g></g></g><g fill="#ee3ec9" fill-opacity="1"><g transform="translate(197.291608, 249.941286)"><g><path d="M 23.609375 -66.078125 C 19.265625 -66.078125 16.328125 -65.984375 14.921875 -65.796875 C 13.21875 -65.515625 11.984375 -64.859375 11.140625 -63.90625 C 10.484375 -63.15625 9.90625 -61.734375 9.53125 -59.859375 C 9.25 -58.71875 8.875 -56.359375 8.3125 -52.765625 L 8.03125 -50.21875 L 21.4375 -50.21875 Z M 7.546875 -46.828125 L 1.890625 -6.890625 C 1.796875 -5.953125 1.703125 -5.375 1.515625 -5 C 1.421875 -4.53125 1.234375 -4.0625 0.84375 -3.59375 C 0.5625 -3.203125 0.09375 -2.734375 -0.65625 -1.984375 C -1.03125 -1.609375 -1.703125 -0.9375 -2.828125 0 L 1.609375 0 C 5 0 7.359375 -0.09375 8.59375 -0.1875 C 10.671875 -0.375 12.171875 -0.9375 13.125 -1.796875 C 13.96875 -2.640625 14.640625 -4.0625 15.015625 -6.046875 C 15.390625 -7.265625 15.765625 -9.625 16.234375 -13.21875 L 20.953125 -46.828125 Z M 7.546875 -46.828125 "/></g></g></g><g fill="#ee3ec9" fill-opacity="1"><g transform="translate(219.003495, 249.941286)"><g><path d="M 6.515625 -46.734375 C 5.953125 -42.953125 5.5625 -40.40625 5.46875 -39.078125 L 5.46875 -38.328125 C 5.46875 -37.203125 5.671875 -36.34375 5.953125 -35.6875 C 6.515625 -34.734375 7.734375 -34.078125 9.53125 -33.796875 C 10.859375 -33.609375 13.6875 -33.515625 18.03125 -33.515625 L 35.3125 -33.515625 C 36.4375 -33.515625 37.109375 -33.515625 37.390625 -33.421875 C 37.859375 -33.421875 38.140625 -33.234375 38.328125 -33.046875 C 38.515625 -32.953125 38.609375 -32.5625 38.609375 -32.09375 L 38.609375 -31.53125 C 38.609375 -31.25 38.515625 -30.78125 38.328125 -30.015625 L 16.046875 -30.015625 C 12.265625 -30.015625 9.625 -29.921875 8.3125 -29.546875 C 7.078125 -29.359375 6.140625 -28.890625 5.375 -28.234375 C 4.4375 -27.375 3.78125 -25.765625 3.296875 -23.3125 C 3.109375 -22.1875 2.734375 -20.015625 2.265625 -16.703125 L 1.796875 -13.21875 C 1.421875 -9.90625 1.140625 -7.640625 1.03125 -6.421875 C 1.03125 -6.046875 0.9375 -5.5625 0.9375 -5.09375 C 0.9375 -3.78125 1.140625 -2.828125 1.515625 -2.078125 C 2.078125 -1.140625 3.296875 -0.5625 5.1875 -0.28125 C 6.515625 -0.09375 9.25 0 13.40625 0 L 34.171875 0 C 39.171875 0 42.390625 -0.1875 43.703125 -0.46875 C 45.21875 -0.84375 46.359375 -1.609375 47.015625 -2.734375 C 47.578125 -3.6875 48.140625 -5.09375 48.53125 -7.078125 C 48.71875 -8.21875 49.09375 -10.203125 49.46875 -13.21875 L 18.21875 -13.21875 C 17.28125 -13.3125 16.703125 -13.3125 16.328125 -13.3125 C 15.953125 -13.40625 15.765625 -13.5 15.578125 -13.6875 C 15.484375 -13.96875 15.484375 -14.34375 15.484375 -14.921875 C 15.484375 -15.296875 15.578125 -15.859375 15.671875 -16.703125 L 37.765625 -16.703125 C 41.25 -16.703125 43.609375 -16.796875 44.84375 -17 C 46.734375 -17.28125 48.140625 -17.84375 48.90625 -18.78125 C 49.65625 -19.640625 50.21875 -20.953125 50.609375 -22.65625 C 50.890625 -23.984375 51.265625 -26.4375 51.828125 -30.015625 L 52.296875 -33.515625 C 52.765625 -37.203125 53.0625 -39.65625 53.0625 -40.875 L 53.0625 -41.53125 C 53.0625 -43.421875 52.671875 -44.65625 51.921875 -45.40625 C 51.359375 -45.96875 50.3125 -46.359375 48.8125 -46.546875 C 47.671875 -46.734375 45.59375 -46.734375 42.765625 -46.734375 Z M 6.515625 -46.734375 "/></g></g></g></svg>