<svg xmlns="http://www.w3.org/2000/svg" version="1.1" xmlns:xlink="http://www.w3.org/1999/xlink" xmlns:svgjs="http://svgjs.dev/svgjs" viewBox="0 0 800 800" opacity="0.31"><defs><symbol id="bbburst-shape-1" viewBox="0 0 194 167"><path d="m97 0 96.129 166.5H.871L97 0Z"></path></symbol><symbol id="bbburst-shape-4" viewBox="0 0 149 143"><path d="M71.647 2.781c.898-2.764 4.808-2.764 5.706 0l15.445 47.534a3 3 0 0 0 2.853 2.073h49.98c2.906 0 4.115 3.719 1.764 5.427L106.96 87.193a2.999 2.999 0 0 0-1.09 3.354l15.445 47.534c.898 2.764-2.266 5.062-4.617 3.354l-40.435-29.378a3 3 0 0 0-3.526 0l-40.435 29.378c-2.351 1.708-5.515-.59-4.617-3.354L43.13 90.547a3 3 0 0 0-1.09-3.354L1.605 57.815c-2.35-1.708-1.142-5.427 1.764-5.427h49.98a3 3 0 0 0 2.853-2.073L71.647 2.781Z"></path></symbol><symbol id="bbburst-shape-7" viewBox="0 0 139 124"><path fill-rule="evenodd" clip-rule="evenodd" d="M70.1641 15.0917C54.6093.764854 37.8293-2.10782 24.4032 2.82615 10.3804 7.97941.763366 21.4591 1.00047 37.0608c.1068 7.0273 2.86132 13.7317 7.0039 20.2001C12.1442 63.7249 17.853 70.2322 24.25 76.9024c3.8209 3.9842 7.8871 8.0312 12.0767 12.201h.0001c10.0335 9.9862 20.7748 20.6766 30.5497 32.8956 1.38 1.725 3.8972 2.005 5.6223.624.6706-.536 1.1228-1.244 1.3439-2.011 9.5768-11.748 20.0328-22.0735 29.8163-31.7351 4.19-4.1373 8.256-8.1528 12.078-12.1062 6.396-6.6176 12.106-13.0752 16.247-19.4911 4.144-6.4196 6.905-13.0811 7.012-20.0691.237-15.5124-9.399-28.8902-23.411-33.99923-13.32-4.85681-29.9542-2.08621-45.4209 11.88043Zm-3.7351 7.4919C52.1278 8.44857 37.6826 6.46918 27.1626 10.3352 16.2859 14.3323 8.8148 24.7824 8.99955 36.9392c.07575 4.9844 2.03755 10.2234 5.74165 16.0072 3.707 5.7881 8.9752 11.8418 15.2827 18.4187 3.5798 3.7328 7.4978 7.6329 11.6 11.7163 9.0476 9.0063 18.9911 18.9046 28.1786 29.8666 9.2999-11.068 19.4036-21.0473 28.5839-30.1144l.0007-.0006c4.1019-4.0508 8.0189-7.9196 11.5979-11.6222 6.307-6.5252 11.573-12.5298 15.278-18.2697 3.703-5.7362 5.658-10.924 5.734-15.8531.184-12.0276-7.267-22.3914-18.153-26.3608-10.71-3.90518-25.4722-1.80041-40.0023 12.867-1.5547 1.5694-4.0874 1.5813-5.6568.0265-.3146-.3116-.5666-.6625-.7559-1.0371Z"></path></symbol><symbol id="bbburst-shape-10" viewBox="0 0 145 145"><circle cx="72.5" cy="72.5" r="61.5" fill="none" stroke-width="22"></circle></symbol><symbol id="bbburst-shape-11" viewBox="0 0 194 167"><path d="M10.398 161 97 11l86.603 150H10.397Z" stroke-width="11"></path></symbol><symbol id="bbburst-shape-12" viewBox="0 0 170 151"><path d="M69.3728 54.2122 85 10.0031l15.627 44.2091c1.413 3.9958 5.19 6.6672 9.428 6.6673h49.312l-39.149 26.1447c-3.803 2.5401-5.399 7.3367-3.875 11.6488l15.179 42.94-40.9683-27.36c-3.3621-2.245-7.7453-2.245-11.1074 0l-40.9682 27.36 15.1785-42.94c1.5243-4.3121-.0712-9.1087-3.8746-11.6488L10.6333 60.8795h49.3112c4.2381-.0001 8.0159-2.6715 9.4283-6.6673Z" stroke-width="12"></path></symbol><symbol id="bbburst-shape-13" viewBox="0 0 159 159"><path stroke-width="22" d="M11 11h137v137H11z"></path></symbol><symbol id="bbburst-shape-14" viewBox="0 0 185 109"><path d="M168 16.5C168 58.1975 134.197 92 92.5 92 50.8025 92 17 58.1975 17 16.5" stroke-width="33" stroke-linecap="round"></path></symbol></defs><use xlink:href="#bbburst-shape-7" width="17.590377137978347" opacity="0.5961274571923562" transform="matrix(0.7084977106574857,-0.7057131102601834,0.7057131102601834,0.7084977106574857,233.08564066118834,257.871953431555)" fill="#ffa6d5"></use><use xlink:href="#bbburst-shape-10" width="19.174448778407474" opacity="0.49476482672164224" transform="matrix(0.8328820887817308,0.5534504731108115,-0.5534504731108115,0.8328820887817308,607.4622727111639,-165.7372807817078)" fill="none" stroke="#2c2891"></use><use xlink:href="#bbburst-shape-13" width="11.629360588752256" opacity="0.7638590200387053" transform="matrix(0.9890364470791341,0.14767161659941003,-0.14767161659941003,0.9890364470791341,497.7799109000634,100.04116022890366)" fill="none" stroke="#00a19d"></use><use xlink:href="#bbburst-shape-7" width="33.99126839651406" opacity="0.04824765838480305" transform="matrix(0.888315519226409,0.4592336423886162,-0.4592336423886162,0.888315519226409,797.8373896012133,-324.90440921911244)" fill="#2c2891"></use><use xlink:href="#bbburst-shape-4" width="12.57841466995095" opacity="0.8763128693459561" transform="matrix(0.99813984501733,-0.060965972384440875,0.060965972384440875,0.99813984501733,334.4115363150277,44.4767919729548)" fill="#2c2891"></use><use xlink:href="#bbburst-shape-10" width="11.585966680648022" opacity="0.8291839035973162" transform="matrix(0.9999625572734547,-0.008653557137544253,0.008653557137544253,0.9999625572734547,465.15352935667727,19.354014928814706)" fill="none" stroke="#00a19d"></use><use xlink:href="#bbburst-shape-4" width="13.128582352541654" opacity="0.6861442293873914" transform="matrix(0.9335642094781517,-0.35841019346753217,0.35841019346753217,0.9335642094781517,227.18123918300944,-110.3565954657384)" fill="#2c2891"></use><use xlink:href="#bbburst-shape-7" width="29.40908361648306" opacity="0.16459380805968726" transform="matrix(0.7964533661227178,-0.6046999550122293,0.6046999550122293,0.7964533661227178,80.75165223431173,460.5373074838775)" fill="#ff5c58"></use><use xlink:href="#bbburst-shape-14" width="34.380231131806454" opacity="0.2519983074118769" transform="matrix(0.8746567828965902,0.4847427277773098,-0.4847427277773098,0.8746567828965902,306.84067842766785,-156.4397818765635)" fill="none" stroke="#ffa6d5"></use><use xlink:href="#bbburst-shape-13" width="25.695178389742424" opacity="0.39030293005810657" transform="matrix(0.9764969047245621,0.21553142476991527,-0.21553142476991527,0.9764969047245621,371.109115421194,261.10678198586885)" fill="none" stroke="#00a19d"></use><use xlink:href="#bbburst-shape-4" width="21.68301429209796" opacity="0.622630620049255" transform="matrix(0.8099952918749665,-0.5864363794482634,0.5864363794482634,0.8099952918749665,5.311802031245435,5.351908137987664)" fill="#ffbd9b"></use><use xlink:href="#bbburst-shape-14" width="16.04235378634822" opacity="0.6525727929825694" transform="matrix(0.9994467710039526,-0.033258862424514216,0.033258862424514216,0.9994467710039526,449.2224057581352,-139.01346541660877)" fill="none" stroke="#2c2891"></use><use xlink:href="#bbburst-shape-7" width="21.34690182800051" opacity="0.5009510919718119" transform="matrix(0.9005964350694613,-0.4346562562993631,0.4346562562993631,0.9005964350694613,89.07085925790682,229.37724149282695)" fill="#ffbd9b"></use><use xlink:href="#bbburst-shape-14" width="9.682638400131923" opacity="0.9252102214172205" transform="matrix(0.9793139901571406,0.20234650647466074,-0.20234650647466074,0.9793139901571406,447.28726029317545,24.54246453847992)" fill="none" stroke="#ff5c58"></use><use xlink:href="#bbburst-shape-10" width="11.581110464319826" opacity="0.8139571349334126" transform="matrix(0.9309450984773721,-0.36515917573156514,0.36515917573156514,0.9309450984773721,296.24395653762565,-39.066113605303656)" fill="none" stroke="#2c2891"></use><use xlink:href="#bbburst-shape-11" width="9.353934650641767" opacity="0.8620587690408023" transform="matrix(0.7856066074582005,-0.6187263193997947,0.6187263193997947,0.7856066074582005,205.74124283517742,63.93252208717996)" fill="none" stroke="#ffa6d5"></use><use xlink:href="#bbburst-shape-4" width="9.501060486492698" opacity="0.8709871623464701" transform="matrix(0.9655060804278166,-0.26038050744422975,0.26038050744422975,0.9655060804278166,235.71166514747807,-1.823729808970711)" fill="#ffa6d5"></use><use xlink:href="#bbburst-shape-12" width="26.835653981391967" opacity="0.22373466007117981" transform="matrix(0.9121813459828607,-0.4097867641114053,0.4097867641114053,0.9121813459828607,45.52296098664905,-259.8050668932493)" fill="none" stroke="#ffa6d5"></use><use xlink:href="#bbburst-shape-7" width="34.981984344893625" opacity="0.13282141617953425" transform="matrix(0.9700133718471599,-0.2430515551024178,0.2430515551024178,0.9700133718471599,28.338028080771934,309.6088048188632)" fill="#ffa6d5"></use><use xlink:href="#bbburst-shape-10" width="23.528119610117425" opacity="0.6317227098333744" transform="matrix(0.9914838636229821,0.13022959792322067,-0.13022959792322067,0.9914838636229821,363.0042166401002,-144.65292374949206)" fill="none" stroke="#2c2891"></use><use xlink:href="#bbburst-shape-11" width="13.416126682910562" opacity="0.7890854679703496" transform="matrix(0.989507631102603,-0.1444806145810397,0.1444806145810397,0.989507631102603,412.51191966841645,60.5316317995547)" fill="none" stroke="#ffa6d5"></use><use xlink:href="#bbburst-shape-13" width="15.760023562428106" opacity="0.5336096626586728" transform="matrix(0.8775722025649151,0.47944450073534445,-0.47944450073534445,0.8775722025649151,791.1795687374166,6.70843211885375)" fill="none" stroke="#00a19d"></use><use xlink:href="#bbburst-shape-7" width="33.626581280207276" opacity="0.4419120273566587" transform="matrix(0.7920613262429615,-0.6104415250212266,0.6104415250212266,0.7920613262429615,327.2738869180819,263.4867956722234)" fill="#ffa6d5"></use><use xlink:href="#bbburst-shape-7" width="17.220672861712224" opacity="0.6288521398835606" transform="matrix(0.973831462897624,0.22727138374787453,-0.22727138374787453,0.973831462897624,362.53347888593214,-107.745960975343)" fill="#ffa6d5"></use><use xlink:href="#bbburst-shape-4" width="19.219361936353955" opacity="0.6318696260903394" transform="matrix(0.8863338902024899,0.4630466877956483,-0.4630466877956483,0.8863338902024899,413.29189933592966,68.28685445377278)" fill="#2c2891"></use><use xlink:href="#bbburst-shape-4" width="25.34470716217055" opacity="0.17965392249363588" transform="matrix(0.7835792083663854,-0.6212918993644684,0.6212918993644684,0.7835792083663854,186.24656689761133,460.90162257302495)" fill="#00a19d"></use><use xlink:href="#bbburst-shape-12" width="17.36605120504185" opacity="0.6144844705904393" transform="matrix(0.9280242331051086,0.37251982869328587,-0.37251982869328587,0.9280242331051086,546.3674978006302,198.9242332621904)" fill="none" stroke="#2c2891"></use><use xlink:href="#bbburst-shape-10" width="7.44544570368771" opacity="0.9564859661947449" transform="matrix(0.9725191223633188,-0.23282301569578565,0.23282301569578565,0.9725191223633188,284.38912198496433,6.597801680861494)" fill="none" stroke="#2c2891"></use><use xlink:href="#bbburst-shape-10" width="5.983655184720033" opacity="0.9417471740382819" transform="matrix(0.9999672143329762,0.008097546489380103,-0.008097546489380103,0.9999672143329762,406.2927681292294,25.49602359846716)" fill="none" stroke="#2c2891"></use><use xlink:href="#bbburst-shape-7" width="22.583230291787373" opacity="0.5059651855345055" transform="matrix(0.8549296074957237,-0.5187440276544955,0.5187440276544955,0.8549296074957237,208.75978843325802,284.7131875224951)" fill="#00a19d"></use><use xlink:href="#bbburst-shape-13" width="14.134172376782068" opacity="0.7484284011655886" transform="matrix(0.9794628477975832,0.2016247251312405,-0.2016247251312405,0.9794628477975832,409.17292910588645,99.78741390477427)" fill="none" stroke="#ffa6d5"></use><use xlink:href="#bbburst-shape-11" width="24.463994688729983" opacity="0.24744296459290516" transform="matrix(0.7313998187768809,-0.6819489021130145,0.6819489021130145,0.7313998187768809,40.09822078796964,-214.00374264102038)" fill="none" stroke="#ffa6d5"></use><use xlink:href="#bbburst-shape-11" width="7.02913013015944" opacity="0.9195199976026032" transform="matrix(0.9983287332931777,-0.0577904860789315,0.0577904860789315,0.9983287332931777,409.45094327940865,3.9045886966656553)" fill="none" stroke="#ffa6d5"></use><use xlink:href="#bbburst-shape-13" width="9.157327701475229" opacity="0.9254510659166008" transform="matrix(0.8121593833564281,-0.5834356314334139,0.5834356314334139,0.8121593833564281,188.72050894969095,99.23358358510768)" fill="none" stroke="#00a19d"></use><use xlink:href="#bbburst-shape-11" width="12.864600033472621" opacity="0.7937453996968907" transform="matrix(0.8863096719925772,-0.4630930417663499,0.4630930417663499,0.8863096719925772,122.66822927761825,82.42480003385907)" fill="none" stroke="#ffa6d5"></use><use xlink:href="#bbburst-shape-11" width="29.94460217190794" opacity="0.0018004144696758262" transform="matrix(0.994541762312201,0.10433926881544353,-0.10433926881544353,0.994541762312201,780.2238346670258,277.5880649504241)" fill="none" stroke="#ffa6d5"></use><use xlink:href="#bbburst-shape-13" width="33.0361708507597" opacity="0.2905490486379946" transform="matrix(0.9297167907380912,-0.3682752897217845,0.3682752897217845,0.9297167907380912,-78.89359650542289,-9.65945407829389)" fill="none" stroke="#ff5c58"></use><use xlink:href="#bbburst-shape-1" width="39.87161760761211" opacity="0.033524423523507374" transform="matrix(0.8849425643278216,-0.4657001802027774,0.4657001802027774,0.8849425643278216,555.1569680281519,-190.0646382307424)" fill="#2c2891"></use><use xlink:href="#bbburst-shape-11" width="12.61194677059328" opacity="0.7453405565631395" transform="matrix(0.9166133115819098,0.3997749829977416,-0.3997749829977416,0.9166133115819098,460.4436679612004,96.5871603947869)" fill="none" stroke="#00a19d"></use><use xlink:href="#bbburst-shape-7" width="9.501085394602793" opacity="0.8676815860282681" transform="matrix(0.8712802589911063,0.49078580897616714,-0.49078580897616714,0.8712802589911063,579.3069997901173,107.27931663002659)" fill="#00a19d"></use><use xlink:href="#bbburst-shape-12" width="20.237334734956683" opacity="0.6820063532879899" transform="matrix(0.9208254820681296,-0.3899749114673874,0.3899749114673874,0.9208254820681296,271.9268442499181,173.74619932445995)" fill="none" stroke="#ff5c58"></use><use xlink:href="#bbburst-shape-11" width="11.28620414588327" opacity="0.8100771121466523" transform="matrix(0.8137357798239743,0.5812349616413903,-0.5812349616413903,0.8137357798239743,698.5091649238944,22.828223590360437)" fill="none" stroke="#00a19d"></use><use xlink:href="#bbburst-shape-11" width="13.306261993689652" opacity="0.7354592047446045" transform="matrix(0.8191083196957634,0.5736388764764668,-0.5736388764764668,0.8191083196957634,699.0098253000523,-24.123145677811863)" fill="none" stroke="#2c2891"></use><use xlink:href="#bbburst-shape-7" width="36.45088198064247" opacity="-0.09794177080328725" transform="matrix(0.8505641051876319,0.525871374925811,-0.525871374925811,0.8505641051876319,929.5262527904873,413.4681782405097)" fill="#ffa6d5"></use><use xlink:href="#bbburst-shape-1" width="13.823318474752096" opacity="0.8073819333763328" transform="matrix(0.8708807613388663,0.4914943535075826,-0.4914943535075826,0.8708807613388663,545.4352874474399,-25.733678776708587)" fill="#00a19d"></use><use xlink:href="#bbburst-shape-14" width="11.538173151964076" opacity="0.774629124813216" transform="matrix(0.9998600949948047,0.01672693746566138,-0.01672693746566138,0.9998600949948047,299.53947284002203,2.606501433233859)" fill="none" stroke="#00a19d"></use><use xlink:href="#bbburst-shape-7" width="23.55625920555614" opacity="0.4380634983027728" transform="matrix(0.9611854540537432,-0.2759031042150476,0.2759031042150476,0.9611854540537432,454.55401529521896,-162.46924613533778)" fill="#ffbd9b"></use><use xlink:href="#bbburst-shape-4" width="27.74681512432495" opacity="0.25202347622228494" transform="matrix(0.9017939592036017,-0.43216623554356115,0.43216623554356115,0.9017939592036017,-85.31217507063346,198.02632385528045)" fill="#ffa6d5"></use><use xlink:href="#bbburst-shape-13" width="12.024361669086979" opacity="0.7548758208308475" transform="matrix(0.964737284573753,0.2632146875713087,-0.2632146875713087,0.964737284573753,541.6608040584853,-89.4021223721615)" fill="none" stroke="#2c2891"></use><use xlink:href="#bbburst-shape-7" width="34.23760640760909" opacity="0.24621688699338062" transform="matrix(0.7372291595277733,-0.6756427801301313,0.6756427801301313,0.7372291595277733,230.0803897438039,436.5562351509244)" fill="#ff5c58"></use><use xlink:href="#bbburst-shape-13" width="20.009034535263" opacity="0.5467591737819584" transform="matrix(0.8420187840055587,-0.5394482063940896,0.5394482063940896,0.8420187840055587,-27.13682000509408,48.16911607748108)" fill="none" stroke="#00a19d"></use><use xlink:href="#bbburst-shape-11" width="29.47993671214594" opacity="0.3352975244980523" transform="matrix(0.7819670811537189,0.6233197285438133,-0.6233197285438133,0.7819670811537189,897.4647239235685,226.61930305473294)" fill="none" stroke="#ffa6d5"></use><use xlink:href="#bbburst-shape-13" width="22.542269537603183" opacity="0.5754892884669016" transform="matrix(0.8889241335025623,-0.4580544562349753,0.4580544562349753,0.8889241335025623,366.0960025893713,154.96922764198433)" fill="none" stroke="#ffa6d5"></use><use xlink:href="#bbburst-shape-7" width="16.465611667407686" opacity="0.7155699548045114" transform="matrix(0.8186280166185503,0.5743240987518968,-0.5743240987518968,0.8186280166185503,617.9717671916783,195.67902744377426)" fill="#2c2891"></use><use xlink:href="#bbburst-shape-13" width="27.86875499959486" opacity="0.44602491838797553" transform="matrix(0.7573354442546968,0.6530260522180881,-0.6530260522180881,0.7573354442546968,466.07763604252085,255.52287678738696)" fill="none" stroke="#00a19d"></use><use xlink:href="#bbburst-shape-13" width="6.910268274040154" opacity="0.9687836387020683" transform="matrix(0.7616522702469632,0.6479859714744193,-0.6479859714744193,0.7616522702469632,667.5359903219226,101.87044554134775)" fill="none" stroke="#ff5c58"></use><use xlink:href="#bbburst-shape-14" width="8.96224777244125" opacity="0.85375051043384" transform="matrix(0.940625654893712,0.3394456913200924,-0.3394456913200924,0.940625654893712,474.43803491050875,54.926990195354506)" fill="none" stroke="#2c2891"></use><use xlink:href="#bbburst-shape-12" width="12.905708944573249" opacity="0.8240697748640801" transform="matrix(0.8574756245227968,-0.5145245896448872,0.5145245896448872,0.8574756245227968,233.02329091366755,125.8707614213755)" fill="none" stroke="#00a19d"></use><use xlink:href="#bbburst-shape-10" width="31.273511013206978" opacity="0.1299416360707153" transform="matrix(0.960293599917821,0.27899140122389426,-0.27899140122389426,0.960293599917821,861.3481084814518,-130.7386854186691)" fill="none" stroke="#ff5c58"></use><use xlink:href="#bbburst-shape-14" width="19.074900475254527" opacity="0.5461599890932762" transform="matrix(0.8764364138406089,-0.48151761389819675,0.48151761389819675,0.8764364138406089,126.31325962846932,244.8780179556361)" fill="none" stroke="#ffa6d5"></use><use xlink:href="#bbburst-shape-14" width="14.774879139741302" opacity="0.657536957903397" transform="matrix(0.9902957409854788,0.13897606047813246,-0.13897606047813246,0.9902957409854788,581.1859544120567,-75.12032524956646)" fill="none" stroke="#00a19d"></use><use xlink:href="#bbburst-shape-14" width="20.694115461339187" opacity="0.410142237153463" transform="matrix(0.8419886236703611,-0.5394952804331944,0.5394952804331944,0.8419886236703611,396.11456395699463,-78.79606356216055)" fill="none" stroke="#00a19d"></use><use xlink:href="#bbburst-shape-4" width="14.17290619086509" opacity="0.6950329447264109" transform="matrix(0.965014400006093,0.2621968874355307,-0.2621968874355307,0.965014400006093,605.7520507433361,97.1834521569146)" fill="#ffa6d5"></use><use xlink:href="#bbburst-shape-14" width="6.44674912421137" opacity="0.9179129150644266" transform="matrix(0.7317162177109442,-0.6816094018855595,0.6816094018855595,0.7317162177109442,88.54002907211816,103.60825424564501)" fill="none" stroke="#2c2891"></use><use xlink:href="#bbburst-shape-11" width="8.975513248144184" opacity="0.9119161546756327" transform="matrix(0.8784248962486841,0.4778804261010159,-0.4778804261010159,0.8784248962486841,621.9988304274716,27.285908229507868)" fill="none" stroke="#2c2891"></use><use xlink:href="#bbburst-shape-14" width="8.54118879525352" opacity="0.890338776838003" transform="matrix(0.8986787535103056,0.43860745318469385,-0.43860745318469385,0.8986787535103056,523.4111952120986,49.29669841627452)" fill="none" stroke="#2c2891"></use><use xlink:href="#bbburst-shape-1" width="7.048453225220183" opacity="0.9860687431784189" transform="matrix(0.9750075723777276,-0.22217163141609728,0.22217163141609728,0.9750075723777276,308.831107020116,4.623150760981957)" fill="#00a19d"></use><use xlink:href="#bbburst-shape-1" width="31.578875009517738" opacity="0.31128635329962473" transform="matrix(0.8545261024140842,0.5194084522733472,-0.5194084522733472,0.8545261024140842,546.1804831988769,356.19379828618355)" fill="#00a19d"></use><use xlink:href="#bbburst-shape-1" width="20.637510056353662" opacity="0.6565190921048002" transform="matrix(0.990105175850465,-0.14032726304649346,0.14032726304649346,0.990105175850465,196.58445624810741,76.86137274517017)" fill="#ffa6d5"></use><use xlink:href="#bbburst-shape-14" width="12.756588655864876" opacity="0.8148838767768836" transform="matrix(0.9875506167646704,-0.15730155538874718,0.15730155538874718,0.9875506167646704,314.640117198507,-75.72301281442606)" fill="none" stroke="#ffa6d5"></use><use xlink:href="#bbburst-shape-14" width="11.924112730372139" opacity="0.7385438587775421" transform="matrix(0.9452025023295706,0.3264846544478287,-0.3264846544478287,0.9452025023295706,620.696639771696,-48.393320661902806)" fill="none" stroke="#00a19d"></use><use xlink:href="#bbburst-shape-12" width="8.397928794153488" opacity="0.9069172851083155" transform="matrix(0.9089567729428781,0.41689037518425515,-0.41689037518425515,0.9089567729428781,531.391855264179,7.1050399767979115)" fill="none" stroke="#ffa6d5"></use><use xlink:href="#bbburst-shape-13" width="21.123794912373548" opacity="0.5840182388955055" transform="matrix(0.8811329730195112,-0.4728685693274584,0.4728685693274584,0.8811329730195112,61.99309045127032,177.30383676791314)" fill="none" stroke="#ffbd9b"></use><use xlink:href="#bbburst-shape-4" width="11.260078024623057" opacity="0.8686841277065349" transform="matrix(0.9964330623210361,0.08438692027513539,-0.08438692027513539,0.9964330623210361,469.2223953704752,-41.516844829007425)" fill="#ff5c58"></use><use xlink:href="#bbburst-shape-12" width="21.964572857728562" opacity="0.512252033049146" transform="matrix(0.9003830834835153,-0.43509803835080335,0.43509803835080335,0.9003830834835153,37.02100517699108,-82.37967838805139)" fill="none" stroke="#ffa6d5"></use><use xlink:href="#bbburst-shape-14" width="9.388471507929449" opacity="0.9693614381846138" transform="matrix(0.9991446067606669,0.04135280862374932,-0.04135280862374932,0.9991446067606669,403.0362674794457,10.762712325850316)" fill="none" stroke="#2c2891"></use><use xlink:href="#bbburst-shape-14" width="7.194690209998151" opacity="0.9143280384225219" transform="matrix(0.9900769479912861,0.1405262859975324,-0.1405262859975324,0.9900769479912861,446.7565870114957,-34.62632767372827)" fill="none" stroke="#2c2891"></use><use xlink:href="#bbburst-shape-13" width="30.675528956305598" opacity="0.1836378710928076" transform="matrix(0.8708150944611601,-0.49161069074889,0.49161069074889,0.8708150944611601,43.78177493141672,396.22448397266766)" fill="none" stroke="#ff5c58"></use><use xlink:href="#bbburst-shape-1" width="9.034595312074188" opacity="0.8726935242121341" transform="matrix(0.8740496709766705,0.4858365699137663,-0.4858365699137663,0.8740496709766705,647.6531005578044,46.865647302034006)" fill="#ff5c58"></use><use xlink:href="#bbburst-shape-7" width="28.75072866003285" opacity="0.1374318194670343" transform="matrix(0.7291686590839437,0.684334031456659,-0.684334031456659,0.7291686590839437,781.522799996482,-271.2586469737997)" fill="#ffa6d5"></use><use xlink:href="#bbburst-shape-7" width="22.166423318067103" opacity="0.6135894186612019" transform="matrix(0.8619929523439276,-0.5069202601094175,0.5069202601094175,0.8619929523439276,194.8187102014029,-112.88001520348556)" fill="#ffa6d5"></use><use xlink:href="#bbburst-shape-10" width="13.95609148121277" opacity="0.7593400142947213" transform="matrix(0.9956681772532225,-0.09297785115416145,0.09297785115416145,0.9956681772532225,358.74488043844383,-105.87705657241992)" fill="none" stroke="#ffa6d5"></use><use xlink:href="#bbburst-shape-14" width="27.907836083685183" opacity="0.2819405490521485" transform="matrix(0.9467974179399908,-0.32183015611058935,0.32183015611058935,0.9467974179399908,564.4508147893014,128.4759912351866)" fill="none" stroke="#ffa6d5"></use><use xlink:href="#bbburst-shape-4" width="12.174154035075363" opacity="0.7652018726919851" transform="matrix(0.9891027760390934,0.14722669062285942,-0.14722669062285942,0.9891027760390934,470.96893212069415,107.5708271333944)" fill="#2c2891"></use><use xlink:href="#bbburst-shape-1" width="8.21827448754712" opacity="0.8991063474860792" transform="matrix(0.8580075747653827,0.5136370329768154,-0.5136370329768154,0.8580075747653827,607.5081964613709,99.75283891211598)" fill="#00a19d"></use><use xlink:href="#bbburst-shape-7" width="14.977675661486142" opacity="0.6410832707571401" transform="matrix(0.8387414465070785,-0.5445298760501701,0.5445298760501701,0.8387414465070785,93.67095649839868,207.64382416896314)" fill="#2c2891"></use><use xlink:href="#bbburst-shape-4" width="17.081603576021443" opacity="0.6635632585503437" transform="matrix(0.751528473473775,-0.6597006545079195,0.6597006545079195,0.751528473473775,207.91817068932835,234.66720380691442)" fill="#2c2891"></use><use xlink:href="#bbburst-shape-10" width="34.63576583272676" opacity="-0.0961978288468417" transform="matrix(0.7258384409358318,-0.6878652176552038,0.6878652176552038,0.7258384409358318,-240.7529349180851,-222.95026922274377)" fill="none" stroke="#00a19d"></use><use xlink:href="#bbburst-shape-12" width="20.080222682193806" opacity="0.1716923711060443" transform="matrix(0.9578275577026177,-0.28734364392733414,0.28734364392733414,0.9578275577026177,646.6818081018347,-13.598053392258805)" fill="none" stroke="#2c2891"></use><use xlink:href="#bbburst-shape-7" width="8.426036180684717" opacity="0.9109521881350761" transform="matrix(0.8868997377736175,0.4619619628682523,-0.4619619628682523,0.8868997377736175,598.8479023727702,7.388850426537033)" fill="#2c2891"></use><use xlink:href="#bbburst-shape-7" width="42.135655446004435" opacity="-0.09811670209450063" transform="matrix(0.8636903126377088,0.50402286044958,-0.50402286044958,0.8636903126377088,238.63518664101377,397.9357455059895)" fill="#00a19d"></use><use xlink:href="#bbburst-shape-13" width="36.9793169025813" opacity="0.04662024301152268" transform="matrix(0.9367346494339261,0.3500402784679207,-0.3500402784679207,0.9367346494339261,162.3274791112715,-213.96052489295874)" fill="none" stroke="#00a19d"></use><use xlink:href="#bbburst-shape-4" width="25.08688422993541" opacity="0.5176814953653812" transform="matrix(0.7102421504314996,-0.703957447400366,0.703957447400366,0.7102421504314996,-25.74612199618548,-44.98500079966783)" fill="#ffa6d5"></use><use xlink:href="#bbburst-shape-12" width="26.33448129268645" opacity="0.47759107363658626" transform="matrix(0.8052732224781732,0.5929039021288512,-0.5929039021288512,0.8052732224781732,594.4303547569,302.9197276451273)" fill="none" stroke="#2c2891"></use><use xlink:href="#bbburst-shape-1" width="23.68738586956837" opacity="0.4727919992496358" transform="matrix(0.9999938283664763,-0.0035132931785170625,0.0035132931785170625,0.9999938283664763,601.8360696429124,100.18957552801527)" fill="#ffa6d5"></use><use xlink:href="#bbburst-shape-11" width="24.286133197147606" opacity="0.4145480434337163" transform="matrix(0.890802352538583,0.4543909866092483,-0.4543909866092483,0.890802352538583,307.7647654629239,46.36521638867612)" fill="none" stroke="#ffa6d5"></use><use xlink:href="#bbburst-shape-7" width="25.32102103913216" opacity="0.12109640500440799" transform="matrix(0.8983359146979565,-0.43930921270078765,0.43930921270078765,0.8983359146979565,69.25227526383597,-322.27024701308136)" fill="#00a19d"></use><use xlink:href="#bbburst-shape-13" width="11.911273660581172" opacity="0.8191223407813013" transform="matrix(0.9917786722307061,0.12796509410107693,-0.12796509410107693,0.9917786722307061,462.17706702576504,-77.09521776476441)" fill="none" stroke="#00a19d"></use><use xlink:href="#bbburst-shape-10" width="12.450594106844205" opacity="0.7250736372609388" transform="matrix(0.7791306809531516,0.6268615333528436,-0.6268615333528436,0.7791306809531516,527.0737650517588,49.98455584271102)" fill="none" stroke="#ff5c58"></use><use xlink:href="#bbburst-shape-10" width="22.755695463527562" opacity="0.5715066219740536" transform="matrix(0.9999943508331427,-0.003361294661510806,0.003361294661510806,0.9999943508331427,572.9806318525392,51.95149563096652)" fill="none" stroke="#ffbd9b"></use><use xlink:href="#bbburst-shape-7" width="15.489302064027433" opacity="0.6360933323292428" transform="matrix(0.9550937260550254,-0.29630385493666483,0.29630385493666483,0.9550937260550254,237.9976557244659,180.0141614067005)" fill="#00a19d"></use><use xlink:href="#bbburst-shape-11" width="25.141759172221626" opacity="0.26003034587435236" transform="matrix(0.8435014376013762,0.5371269168124156,-0.5371269168124156,0.8435014376013762,936.6056399421614,78.66976876928521)" fill="none" stroke="#00a19d"></use><use xlink:href="#bbburst-shape-7" width="19.596170846825657" opacity="0.3978128209820506" transform="matrix(0.9097694708819594,-0.41511385167344117,0.41511385167344117,0.9097694708819594,477.6325441582626,-57.77658138908674)" fill="#ffbd9b"></use><use xlink:href="#bbburst-shape-13" width="18.73815847072911" opacity="0.5147626586823331" transform="matrix(0.9511308662246225,-0.3087880750851613,0.3087880750851613,0.9511308662246225,485.6065712898413,34.327139667048186)" fill="none" stroke="#2c2891"></use><use xlink:href="#bbburst-shape-7" width="18.8963304561575" opacity="0.6812216542045135" transform="matrix(0.9945584437729649,0.10418014167728018,-0.10418014167728018,0.9945584437729649,331.17521724554166,103.01339161450613)" fill="#00a19d"></use><use xlink:href="#bbburst-shape-10" width="16.328558808122526" opacity="0.6474392413285006" transform="matrix(0.9980309306232295,-0.06272369185029393,0.06272369185029393,0.9980309306232295,519.6224442291935,-41.177820615855126)" fill="none" stroke="#ffa6d5"></use><use xlink:href="#bbburst-shape-10" width="33.87385850229638" opacity="0.18498036578989885" transform="matrix(0.7956381477816686,0.6057721830808639,-0.6057721830808639,0.7956381477816686,262.13616428469317,78.21796582216007)" fill="none" stroke="#00a19d"></use><use xlink:href="#bbburst-shape-10" width="28.449758601351157" opacity="0.2762547961619829" transform="matrix(0.8371529642146732,0.5469688423544673,-0.5469688423544673,0.8371529642146732,827.239374418129,-182.45898462505497)" fill="none" stroke="#00a19d"></use><use xlink:href="#bbburst-shape-1" width="28.077487259973463" opacity="0.391824369751517" transform="matrix(0.9723161652083269,-0.23366915687478634,0.23366915687478634,0.9723161652083269,434.6179109426635,-219.73392737897944)" fill="#ffbd9b"></use><use xlink:href="#bbburst-shape-4" width="33.16208965334217" opacity="0.03258387528797324" transform="matrix(0.9587445255389168,0.28426912380551866,-0.28426912380551866,0.9587445255389168,147.83620107536453,270.74306753647073)" fill="#00a19d"></use><use xlink:href="#bbburst-shape-7" width="26.341184500444747" opacity="0.26234897802139867" transform="matrix(0.9159048267108694,0.40139550123006157,-0.40139550123006157,0.9159048267108694,294.58972835414295,242.22211517709712)" fill="#00a19d"></use><use xlink:href="#bbburst-shape-14" width="21.339249009561154" opacity="0.5564980038911065" transform="matrix(0.999265569078066,0.03831869589494132,-0.03831869589494132,0.999265569078066,560.1039653163864,-125.2627140021753)" fill="none" stroke="#ffa6d5"></use><use xlink:href="#bbburst-shape-14" width="22.959105933950138" opacity="0.3969674156484213" transform="matrix(0.9382601467237336,-0.34593048011118915,0.34593048011118915,0.9382601467237336,520.9530933153565,2.377380271309164)" fill="none" stroke="#ffa6d5"></use><use xlink:href="#bbburst-shape-11" width="14.86373791444294" opacity="0.748864590111949" transform="matrix(0.9999975639759999,-0.0022072702747643665,0.0022072702747643665,0.9999975639759999,498.25016455059733,-37.79466844744934)" fill="none" stroke="#ffa6d5"></use><use xlink:href="#bbburst-shape-7" width="10.555630851773726" opacity="0.7444278367639126" transform="matrix(0.8428302943642597,-0.5381794263086014,0.5381794263086014,0.8428302943642597,253.3245219366122,154.5304153682855)" fill="#ffa6d5"></use><use xlink:href="#bbburst-shape-13" width="24.111290724595396" opacity="0.5390329327530524" transform="matrix(0.9614722251842297,0.2749020920242076,-0.2749020920242076,0.9614722251842297,687.8504681748003,-72.32089690339507)" fill="none" stroke="#ffa6d5"></use><use xlink:href="#bbburst-shape-7" width="16.730730644865673" opacity="0.6379810379428463" transform="matrix(0.9975521076632629,-0.06992705125044311,0.06992705125044311,0.9975521076632629,203.83360882751424,-30.157658528149796)" fill="#ffa6d5"></use><use xlink:href="#bbburst-shape-13" width="21.68338196910124" opacity="0.3981759634919385" transform="matrix(0.8616032818461924,-0.5075822935365957,0.5075822935365957,0.8616032818461924,-47.66822849966482,194.95356492474366)" fill="none" stroke="#00a19d"></use><use xlink:href="#bbburst-shape-1" width="14.465455621914334" opacity="0.7176769157951901" transform="matrix(0.8803535470605919,0.4743180706844661,-0.4743180706844661,0.8803535470605919,507.3469496887245,-57.35893713776596)" fill="#ffa6d5"></use><use xlink:href="#bbburst-shape-13" width="17.441826096022965" opacity="0.6870869444039543" transform="matrix(0.9511381601412565,0.3087656074162172,-0.3087656074162172,0.9511381601412565,543.9027109451652,-121.00484136854266)" fill="none" stroke="#00a19d"></use><use xlink:href="#bbburst-shape-12" width="28.757705145372242" opacity="0.4898440720706322" transform="matrix(0.9999663367778895,0.008205200241823326,-0.008205200241823326,0.9999663367778895,513.3455050328837,192.75994499661329)" fill="none" stroke="#ff5c58"></use><use xlink:href="#bbburst-shape-10" width="22.389812980735158" opacity="0.5142130838255745" transform="matrix(0.9972902093652825,0.07356791626892147,-0.07356791626892147,0.9972902093652825,214.53592007516892,-79.00628830305106)" fill="none" stroke="#2c2891"></use><use xlink:href="#bbburst-shape-13" width="11.134373619411953" opacity="0.870323218400107" transform="matrix(0.9999358829056756,-0.011323872025377452,0.011323872025377452,0.9999358829056756,361.55854971169356,-50.919264849912)" fill="none" stroke="#ffbd9b"></use><use xlink:href="#bbburst-shape-10" width="26.854323792264125" opacity="0.2482506267976201" transform="matrix(0.9272168886095233,-0.37452482090947553,0.37452482090947553,0.9272168886095233,293.862322636041,-299.4573370392046)" fill="none" stroke="#2c2891"></use><use xlink:href="#bbburst-shape-14" width="29.93702211329331" opacity="0.18227171532318165" transform="matrix(0.9021203957207444,-0.4314844048452358,0.4314844048452358,0.9021203957207444,-123.25500087124334,-101.73146658584204)" fill="none" stroke="#ffa6d5"></use><use xlink:href="#bbburst-shape-11" width="12.237087313111822" opacity="0.8454378776367114" transform="matrix(0.7481421116326414,0.6635385300054943,-0.6635385300054943,0.7481421116326414,606.3209105851132,53.50607813466877)" fill="none" stroke="#ffa6d5"></use><use xlink:href="#bbburst-shape-7" width="13.327075203095475" opacity="0.7444149848213448" transform="matrix(0.9666754623560461,-0.25600498135529437,0.25600498135529437,0.9666754623560461,251.51036912785875,-92.93769218349468)" fill="#ffa6d5"></use><use xlink:href="#bbburst-shape-1" width="9.669135474381257" opacity="0.9222105244531514" transform="matrix(0.8714696827158508,0.4904493777212225,-0.4904493777212225,0.8714696827158508,577.871550101686,81.09669437980136)" fill="#ff5c58"></use><use xlink:href="#bbburst-shape-12" width="28.54451308481886" opacity="0.31362323801690195" transform="matrix(0.9024375583894819,-0.4308206740722066,0.4308206740722066,0.9024375583894819,-88.37302718066981,104.3295996804394)" fill="none" stroke="#ffa6d5"></use><use xlink:href="#bbburst-shape-10" width="30.299115127751605" opacity="0.2386071603173946" transform="matrix(0.9424533393038631,0.3343377083653556,-0.3343377083653556,0.9424533393038631,677.2863583977633,-286.1567591734104)" fill="none" stroke="#ffa6d5"></use><use xlink:href="#bbburst-shape-11" width="20.204951265311806" opacity="0.642775213992651" transform="matrix(0.7605051949379169,0.6493318477269084,-0.6493318477269084,0.7605051949379169,760.9714969439017,-29.339806270269662)" fill="none" stroke="#ffa6d5"></use><use xlink:href="#bbburst-shape-11" width="19.28799598075381" opacity="0.5466949456510951" transform="matrix(0.988973191619595,-0.1480946530356581,0.1480946530356581,0.988973191619595,147.99448666559712,95.32085544168348)" fill="none" stroke="#ffa6d5"></use><use xlink:href="#bbburst-shape-10" width="21.966662640617567" opacity="0.5344753861373412" transform="matrix(0.9657442151540108,0.25949587838068583,-0.25949587838068583,0.9657442151540108,286.32544493274304,43.8818191383055)" fill="none" stroke="#ffa6d5"></use><use xlink:href="#bbburst-shape-13" width="9.977494979842971" opacity="0.7761829283378625" transform="matrix(0.9445760788331,-0.32829260012416533,0.32829260012416533,0.9445760788331,364.5010158378626,29.9481214049747)" fill="none" stroke="#ffa6d5"></use><use xlink:href="#bbburst-shape-11" width="30.924119534284507" opacity="0.311270767354073" transform="matrix(0.9332676738790869,0.35918163774379985,-0.35918163774379985,0.9332676738790869,702.6935856632168,277.7105012231125)" fill="none" stroke="#ffa6d5"></use><use xlink:href="#bbburst-shape-10" width="13.622418673989753" opacity="0.7552642092793648" transform="matrix(0.8094616263944154,-0.5871727815514849,0.5871727815514849,0.8094616263944154,262.0902480576409,120.56557108440717)" fill="none" stroke="#2c2891"></use><use xlink:href="#bbburst-shape-14" width="23.122485589689035" opacity="0.5769066853015017" transform="matrix(0.9284926471429513,-0.37135078322453413,0.37135078322453413,0.9284926471429513,197.34748318391692,-152.45675230751033)" fill="none" stroke="#2c2891"></use><use xlink:href="#bbburst-shape-1" width="27.72112945568007" opacity="0.15098284016443042" transform="matrix(0.9999246113446503,0.012278909855933653,-0.012278909855933653,0.9999246113446503,19.622011577556105,-89.59256363670119)" fill="#2c2891"></use><use xlink:href="#bbburst-shape-7" width="25.52508978816676" opacity="0.49569876033553506" transform="matrix(0.9615784977337162,0.27453013076194305,-0.27453013076194305,0.9615784977337162,404.54626737269376,-195.21388043541825)" fill="#ff5c58"></use><use xlink:href="#bbburst-shape-10" width="23.656850205091118" opacity="0.5517284587535412" transform="matrix(0.9814160480974772,0.1918920022740143,-0.1918920022740143,0.9814160480974772,520.1077831460683,-188.9271217842593)" fill="none" stroke="#ff5c58"></use><use xlink:href="#bbburst-shape-13" width="30.593177759415457" opacity="0.40716113975802737" transform="matrix(0.9731533248209034,-0.23015778585574984,0.23015778585574984,0.9731533248209034,368.7868228939021,-241.5419978013434)" fill="none" stroke="#2c2891"></use><use xlink:href="#bbburst-shape-11" width="11.30685140390432" opacity="0.8161197963905766" transform="matrix(0.9442264446094378,0.3292968589285666,-0.3292968589285666,0.9442264446094378,491.89455197271195,95.50536581120548)" fill="none" stroke="#ffa6d5"></use><use xlink:href="#bbburst-shape-12" width="12.372880240331124" opacity="0.7336128629002681" transform="matrix(0.7769412698071368,0.6295730801666107,-0.6295730801666107,0.7769412698071368,608.4682193407564,198.8114047905375)" fill="none" stroke="#2c2891"></use><use xlink:href="#bbburst-shape-10" width="23.917989400175895" opacity="0.4326356244426365" transform="matrix(0.9383637620578907,0.3456493165862796,-0.3456493165862796,0.9383637620578907,283.3480329995698,96.68191164686289)" fill="none" stroke="#2c2891"></use><use xlink:href="#bbburst-shape-4" width="18.11584143144125" opacity="0.7107483259149667" transform="matrix(0.9740324660655124,0.22640838113978126,-0.22640838113978126,0.9740324660655124,373.0600107380919,-63.28436274104109)" fill="#ffa6d5"></use><use xlink:href="#bbburst-shape-11" width="43.11136265922071" opacity="0.1070347436948269" transform="matrix(0.7354597384031457,0.6775684269414983,-0.6775684269414983,0.7354597384031457,934.3760323848107,-198.5544117626622)" fill="none" stroke="#ffbd9b"></use><use xlink:href="#bbburst-shape-14" width="7.557876255421232" opacity="0.8690995551755789" transform="matrix(0.9987890044441059,-0.04919882723756622,0.04919882723756622,0.9987890044441059,396.43360535213594,-54.76612704965896)" fill="none" stroke="#ff5c58"></use><use xlink:href="#bbburst-shape-4" width="26.31023023564855" opacity="0.0918892613073734" transform="matrix(0.7099612811008026,0.7042407112186195,-0.7042407112186195,0.7099612811008026,856.2173207064361,471.711550227699)" fill="#2c2891"></use><use xlink:href="#bbburst-shape-13" width="29.43892697376356" opacity="0.09872914060368465" transform="matrix(0.7375733828680008,-0.6752669878534368,0.6752669878534368,0.7375733828680008,-246.8186383556813,289.94891794766687)" fill="none" stroke="#2c2891"></use><use xlink:href="#bbburst-shape-1" width="41.47629480044006" opacity="0.2402817612668422" transform="matrix(0.8375088622684885,0.5464237418174122,-0.5464237418174122,0.8375088622684885,889.6578406928211,-129.73858392820105)" fill="#ffa6d5"></use><use xlink:href="#bbburst-shape-14" width="28.0623400943796" opacity="0.13969389649498465" transform="matrix(0.9808328301058225,0.19485112108120628,-0.19485112108120628,0.9808328301058225,192.19625974639214,-270.53936724236115)" fill="none" stroke="#ffa6d5"></use><use xlink:href="#bbburst-shape-1" width="11.44509709477883" opacity="0.7900952058704053" transform="matrix(0.8334035015026211,0.5526650013192175,-0.5526650013192175,0.8334035015026211,530.4641465541214,24.03816445110465)" fill="#ffa6d5"></use><use xlink:href="#bbburst-shape-14" width="24.512255444638704" opacity="0.1464059282418264" transform="matrix(0.9980372515372298,0.06262303525071516,-0.06262303525071516,0.9980372515372298,784.6554818942302,96.3876271365715)" fill="none" stroke="#ffa6d5"></use><use xlink:href="#bbburst-shape-11" width="13.871302058721245" opacity="0.7780825713798369" transform="matrix(0.990592041790727,-0.1368481155912587,0.1368481155912587,0.990592041790727,264.40313802123273,-62.56243963267622)" fill="none" stroke="#2c2891"></use><use xlink:href="#bbburst-shape-4" width="26.93975828712934" opacity="0.17739784054526542" transform="matrix(0.8916509724554805,0.4527234733468056,-0.4527234733468056,0.8916509724554805,553.4032431302634,-332.57613389055496)" fill="#ffa6d5"></use><use xlink:href="#bbburst-shape-10" width="9.661764814267228" opacity="0.8681854453946983" transform="matrix(0.9745550110669701,-0.22414845617192586,0.22414845617192586,0.9745550110669701,301.1312946911432,-47.88467512033401)" fill="none" stroke="#00a19d"></use><use xlink:href="#bbburst-shape-12" width="5.859028086270411" opacity="0.9475823238224836" transform="matrix(0.9985035237278871,-0.05468741265586479,0.05468741265586479,0.9985035237278871,385.9836080284941,-20.2301293717245)" fill="none" stroke="#2c2891"></use><use xlink:href="#bbburst-shape-12" width="30.647793214691728" opacity="0.02265251386826017" transform="matrix(0.9876911873360469,0.15641649036693644,-0.15641649036693644,0.9876911873360469,195.81988849864507,-358.24555239042877)" fill="none" stroke="#2c2891"></use><use xlink:href="#bbburst-shape-1" width="36.28321810971508" opacity="-0.10138063910937589" transform="matrix(0.8427025753385344,0.5383793918026597,-0.5383793918026597,0.8427025753385344,948.0950178404358,-299.65030167572246)" fill="#2c2891"></use><use xlink:href="#bbburst-shape-11" width="10.474759666723546" opacity="0.84794332318001" transform="matrix(0.9752393785999784,0.22115188090524557,-0.22115188090524557,0.9752393785999784,538.00968981963,49.82068284394444)" fill="none" stroke="#ff5c58"></use><use xlink:href="#bbburst-shape-4" width="11.214529827559051" opacity="0.840291529505624" transform="matrix(0.7731425142527989,0.6342323333407567,-0.6342323333407567,0.7731425142527989,578.1566835815629,97.01586349068134)" fill="#00a19d"></use><use xlink:href="#bbburst-shape-7" width="21.39429608810538" opacity="0.5352566082087917" transform="matrix(0.7253049334782804,-0.6884277401965054,0.6884277401965054,0.7253049334782804,228.49835529045163,-59.52326891353988)" fill="#2c2891"></use><use xlink:href="#bbburst-shape-13" width="37.08407675855098" opacity="0.24689281238904803" transform="matrix(0.996675014910928,0.08147953517479907,-0.08147953517479907,0.996675014910928,669.3995532334154,222.70926107785198)" fill="none" stroke="#2c2891"></use><use xlink:href="#bbburst-shape-13" width="34.698163220825144" opacity="0.3523926396478645" transform="matrix(0.8934439966039673,-0.4491746040598579,0.4491746040598579,0.8934439966039673,229.8263562815816,340.76447365772754)" fill="none" stroke="#00a19d"></use><use xlink:href="#bbburst-shape-10" width="40.3780430664776" opacity="0.11799418237933967" transform="matrix(0.999129145331804,0.04172470429540408,-0.04172470429540408,0.999129145331804,745.2923411877526,188.94849109499233)" fill="none" stroke="#00a19d"></use><use xlink:href="#bbburst-shape-13" width="34.70572360382032" opacity="0.3640994580749908" transform="matrix(0.7105040661475736,0.7036930950263506,-0.7036930950263506,0.7105040661475736,408.12510545550344,-13.681154192131942)" fill="none" stroke="#ffbd9b"></use><use xlink:href="#bbburst-shape-14" width="22.89518058916408" opacity="0.410666892111607" transform="matrix(0.8539377793912625,0.5203751232796583,-0.5203751232796583,0.8539377793912625,858.8191801990716,102.40594261621658)" fill="none" stroke="#ff5c58"></use><use xlink:href="#bbburst-shape-14" width="26.04506008291912" opacity="0.16791831902793775" transform="matrix(0.7602493516613331,0.6496313749339102,-0.6496313749339102,0.7602493516613331,286.78201760058994,178.71917260660342)" fill="none" stroke="#2c2891"></use><use xlink:href="#bbburst-shape-13" width="9.23840711711053" opacity="0.8844866339744313" transform="matrix(0.996190239959899,0.08720668442636079,-0.08720668442636079,0.996190239959899,477.7303937370308,22.34811953969546)" fill="none" stroke="#ffbd9b"></use><use xlink:href="#bbburst-shape-7" width="14.410455905319052" opacity="0.661884250894301" transform="matrix(0.7899783104168444,0.6131347886647338,-0.6131347886647338,0.7899783104168444,778.7415419496892,140.94555846533802)" fill="#2c2891"></use><use xlink:href="#bbburst-shape-11" width="23.086144305840044" opacity="0.3900038111572216" transform="matrix(0.9564836260502936,-0.2917860056577117,0.2917860056577117,0.9564836260502936,65.42403035108312,-160.0932711110141)" fill="none" stroke="#2c2891"></use><use xlink:href="#bbburst-shape-4" width="6.594844584230213" opacity="0.9478438035915795" transform="matrix(0.9958916895663286,-0.0905524304076009,0.0905524304076009,0.9958916895663286,350.10769510360115,-19.098365244634238)" fill="#ffa6d5"></use><use xlink:href="#bbburst-shape-14" width="30.574397274361374" opacity="0.10745722297774574" transform="matrix(0.8172534671687023,-0.5762783792584405,0.5762783792584405,0.8172534671687023,410.3731691888778,393.5985103036476)" fill="none" stroke="#2c2891"></use><use xlink:href="#bbburst-shape-7" width="32.23346184687842" opacity="0.273672436989146" transform="matrix(0.8166078892309444,0.5771928232798651,-0.5771928232798651,0.8166078892309444,933.408651687342,-20.351929212619893)" fill="#ffbd9b"></use><use xlink:href="#bbburst-shape-13" width="6.0455798510094345" opacity="0.9528698230270142" transform="matrix(0.7383330168034974,0.6744363248653251,-0.6744363248653251,0.7383330168034974,688.1034352427694,97.42617248064812)" fill="none" stroke="#2c2891"></use><use xlink:href="#bbburst-shape-7" width="11.824656130180228" opacity="0.7209541999588005" transform="matrix(0.8310093076032581,-0.5562585106555706,0.5562585106555706,0.8310093076032581,52.29925268204789,107.08136948810227)" fill="#ff5c58"></use><use xlink:href="#bbburst-shape-1" width="25.887352624750555" opacity="0.3588025415950705" transform="matrix(0.7443041248689782,0.6678408266219014,-0.6678408266219014,0.7443041248689782,489.6996214904078,-141.08444938974333)" fill="#ffa6d5"></use><use xlink:href="#bbburst-shape-7" width="21.782913894618897" opacity="0.6267811260347314" transform="matrix(0.8642662895910767,0.5030345720489529,-0.5030345720489529,0.8642662895910767,759.6778126648763,50.35982261247642)" fill="#00a19d"></use><use xlink:href="#bbburst-shape-14" width="12.617527475153672" opacity="0.8410176468870728" transform="matrix(0.9906217617687288,-0.1366328112505187,0.1366328112505187,0.9906217617687288,354.84650049743504,74.41772579349362)" fill="none" stroke="#2c2891"></use><use xlink:href="#bbburst-shape-14" width="13.154427984710045" opacity="0.7015356539899604" transform="matrix(0.8896248569827003,-0.4566920339118146,0.4566920339118146,0.8896248569827003,77.17249789337242,47.780432315395785)" fill="none" stroke="#ff5c58"></use><use xlink:href="#bbburst-shape-10" width="9.884128399528043" opacity="0.8187866173235568" transform="matrix(0.9632656693502681,-0.26855027509049395,0.26855027509049395,0.9632656693502681,207.59926865810297,1.3754705424435087)" fill="none" stroke="#ffbd9b"></use><use xlink:href="#bbburst-shape-10" width="25.660081439186825" opacity="0.4184881271623627" transform="matrix(0.9725201123188462,-0.23281888053879732,0.23281888053879732,0.9725201123188462,382.1056595849178,260.5220029062026)" fill="none" stroke="#2c2891"></use><use xlink:href="#bbburst-shape-7" width="11.87963309588288" opacity="0.8022127990911332" transform="matrix(0.9389140366470937,0.3441517569140973,-0.3441517569140973,0.9389140366470937,523.920310210786,111.0044828573624)" fill="#2c2891"></use><use xlink:href="#bbburst-shape-7" width="27.75696997326202" opacity="0.36351840389231604" transform="matrix(0.9444214317732592,0.32873721907831976,-0.32873721907831976,0.9444214317732592,516.1178725514882,-268.78073475554066)" fill="#ffbd9b"></use><use xlink:href="#bbburst-shape-11" width="32.35821766329594" opacity="0.32169331170965343" transform="matrix(0.8336140593253538,-0.5523473545651373,0.5523473545651373,0.8336140593253538,-11.537530551936953,323.90680163077747)" fill="none" stroke="#00a19d"></use><use xlink:href="#bbburst-shape-10" width="19.198769685773986" opacity="0.5746163010797041" transform="matrix(0.988184878358764,0.15326658534421267,-0.15326658534421267,0.988184878358764,517.9817344175525,182.88035819131017)" fill="none" stroke="#00a19d"></use><use xlink:href="#bbburst-shape-14" width="22.616556110962634" opacity="0.4230417488933571" transform="matrix(0.7144102509128066,0.6997270849343341,-0.6997270849343341,0.7144102509128066,417.3990346683896,54.44841551563155)" fill="none" stroke="#ff5c58"></use><use xlink:href="#bbburst-shape-11" width="11.940504450005026" opacity="0.8115776522290742" transform="matrix(0.8658026169569738,0.5003856797216081,-0.5003856797216081,0.8658026169569738,534.4068076590245,109.80588781510522)" fill="none" stroke="#ffa6d5"></use><use xlink:href="#bbburst-shape-11" width="31.127655034267335" opacity="0.04143742445552734" transform="matrix(0.8233253272751522,-0.567569736215087,0.567569736215087,0.8233253272751522,-68.6032970607614,445.0118510321334)" fill="none" stroke="#2c2891"></use><use xlink:href="#bbburst-shape-13" width="11.67779702102271" opacity="0.716294384941611" transform="matrix(0.8616587419085612,0.5074881402481791,-0.5074881402481791,0.8616587419085612,725.0805837889004,40.52422530755416)" fill="none" stroke="#00a19d"></use><use xlink:href="#bbburst-shape-10" width="9.437108040384734" opacity="0.815581069214587" transform="matrix(0.7701736201671728,-0.6378343004249547,0.6378343004249547,0.7701736201671728,222.63747247409646,78.80727584340218)" fill="none" stroke="#2c2891"></use><use xlink:href="#bbburst-shape-11" width="8.390313955015015" opacity="0.8854848695979811" transform="matrix(0.7626567935987153,0.6468033821631783,-0.6468033821631783,0.7626567935987153,683.8160914353067,135.25655274236544)" fill="none" stroke="#00a19d"></use><use xlink:href="#bbburst-shape-12" width="16.567745650657674" opacity="0.6931336016790766" transform="matrix(0.8859013268272137,0.46387373187730985,-0.46387373187730985,0.8859013268272137,714.0743541623694,66.54306279131492)" fill="none" stroke="#00a19d"></use><use xlink:href="#bbburst-shape-14" width="20.362519628940284" opacity="0.3868851871539367" transform="matrix(0.9971485262425004,-0.0754640087221015,0.0754640087221015,0.9971485262425004,275.68754197544246,-260.8746958460493)" fill="none" stroke="#ffa6d5"></use></svg>